<svg width="18" height="18" viewBox="0 0 18 18" fill="none" xmlns="http://www.w3.org/2000/svg">
<path d="M8.99984 16.8337H9.00008C10.0877 16.8342 11.1031 16.6283 12.0516 16.2188C13.01 15.805 13.8386 15.2461 14.5421 14.5426C15.2451 13.8391 15.8037 13.0105 16.2175 12.0521C16.627 11.1036 16.8332 10.088 16.8332 9.00033V9.00008C16.8337 7.9125 16.6278 6.89702 16.2183 5.94853C15.8045 4.99019 15.2456 4.16156 14.5421 3.45805C13.8386 2.75511 13.01 2.1965 12.0516 1.7827C11.1031 1.37316 10.0876 1.16702 9.00008 1.16699L8.99984 16.8337ZM8.99984 16.8337C7.91218 16.8337 6.89661 16.6275 5.94804 16.218M8.99984 16.8337L5.94804 16.218M5.94804 16.218C4.98969 15.8042 4.16105 15.2455 3.45756 14.5426M5.94804 16.218L3.45756 14.5426M3.45756 14.5426C2.7541 13.8391 2.19553 13.0106 1.7823 12.0523C1.37322 11.1037 1.16706 10.0881 1.1665 9.00033L3.45756 14.5426ZM3.45769 3.45792C3.45765 3.45796 3.4576 3.458 3.45756 3.45805C2.75462 4.16154 2.19601 4.99017 1.78221 5.94853C1.37267 6.89702 1.16653 7.91252 1.1665 9.00008L3.45769 3.45792ZM3.45769 3.45792C4.16112 2.75452 4.98964 2.19599 5.94783 1.78279C6.89645 1.37371 7.9121 1.16755 8.99984 1.16699L3.45769 3.45792ZM8.95817 12.417L8.95912 12.417C9.12205 12.4167 9.23977 12.4671 9.34413 12.5717C9.44928 12.6772 9.49984 12.7958 9.49984 12.9587L9.49984 12.9596C9.50015 13.1209 9.45012 13.2388 9.34462 13.3443C9.23907 13.4498 9.1206 13.5003 8.95817 13.5003L8.95722 13.5003C8.79595 13.5006 8.67806 13.4506 8.57256 13.3451C8.46712 13.2397 8.4166 13.1213 8.4165 12.9591C8.41692 12.797 8.46756 12.6783 8.57304 12.5726C8.67785 12.4675 8.79577 12.417 8.95817 12.417ZM11.2241 7.3248L11.6457 7.59366L11.2241 7.32481C11.0412 7.61156 10.7835 7.92569 10.4429 8.2668C9.96005 8.72316 9.59035 9.14882 9.4416 9.52465C9.35322 9.74794 9.29923 10.0064 9.27194 10.292H8.72163C8.74671 9.86685 8.80351 9.61518 8.86372 9.49477C8.90224 9.41772 8.99407 9.28616 9.17076 9.09311C9.34135 8.90672 9.57221 8.68316 9.86744 8.42124C10.1467 8.1883 10.3852 7.93086 10.579 7.64787C10.799 7.32676 10.9165 6.96866 10.9165 6.58366C10.9165 6.15114 10.7468 5.76722 10.4524 5.44482C10.1057 5.06521 9.61696 4.91699 9.08317 4.91699C8.48538 4.91699 7.95133 5.09518 7.58507 5.53418C7.45048 5.69551 7.33262 5.85946 7.2365 6.02585L6.78612 5.84843C6.9535 5.53673 7.18285 5.25684 7.47829 5.00731C7.8623 4.68299 8.38193 4.50033 9.08317 4.50033C9.7662 4.50033 10.3338 4.68129 10.8088 5.02884C11.235 5.34072 11.4582 5.77977 11.4582 6.41699C11.4582 6.79707 11.3725 7.09207 11.2241 7.3248ZM8.99984 16.167C10.9908 16.167 12.6952 15.4704 14.0826 14.083C15.47 12.6956 16.1665 10.9912 16.1665 9.00033C16.1665 7.00941 15.47 5.305 14.0826 3.91761C12.6952 2.53021 10.9908 1.83366 8.99984 1.83366C7.00892 1.83366 5.30452 2.53021 3.91712 3.91761C2.52972 5.305 1.83317 7.00941 1.83317 9.00033C1.83317 10.9912 2.52972 12.6956 3.91712 14.083C5.30452 15.4704 7.00892 16.167 8.99984 16.167Z" fill="#6C757D" stroke="#F8F9FA"/>
</svg>
