<svg width="22" height="22" viewBox="0 0 22 22" fill="none" xmlns="http://www.w3.org/2000/svg">
<path d="M11 0.5C9.81331 0.5 8.65327 0.851894 7.66658 1.51118C6.67988 2.17047 5.91085 3.10754 5.45672 4.2039C5.0026 5.30026 4.88378 6.50666 5.11529 7.67054C5.3468 8.83443 5.91824 9.90353 6.75736 10.7426C7.59647 11.5818 8.66557 12.1532 9.82946 12.3847C10.9933 12.6162 12.1997 12.4974 13.2961 12.0433C14.3925 11.5892 15.3295 10.8201 15.9888 9.83342C16.6481 8.84673 17 7.68669 17 6.5C16.998 4.90931 16.3652 3.38434 15.2404 2.25955C14.1157 1.13476 12.5907 0.501985 11 0.5ZM15.4325 5.75H13.604C13.5666 4.63693 13.3667 3.53529 13.0107 2.48C13.6426 2.79695 14.191 3.25807 14.6117 3.82612C15.0324 4.39417 15.3136 5.05321 15.4325 5.75ZM11.0165 10.9992H11.0105C10.7255 10.9092 10.0287 9.6335 9.90125 7.25H12.0988C11.9713 9.632 11.2782 10.9078 11.0165 10.9992ZM9.90125 5.75C10.0287 3.368 10.7217 2.09225 10.9835 2.00075H10.9895C11.2745 2.09075 11.9713 3.3665 12.0988 5.75H9.90125ZM8.99 2.48C8.6338 3.53525 8.43369 4.63689 8.396 5.75H6.5675C6.68652 5.05314 6.96781 4.39405 7.38864 3.82599C7.80947 3.25794 8.35803 2.79686 8.99 2.48ZM6.5675 7.25H8.39525C8.43294 8.36311 8.63305 9.46475 8.98925 10.52C8.35742 10.2031 7.80901 9.74193 7.38831 9.17388C6.96762 8.60583 6.68644 7.94679 6.5675 7.25ZM13.01 10.52C13.3662 9.46475 13.5663 8.36311 13.604 7.25H15.4325C15.3135 7.94686 15.0322 8.60595 14.6114 9.17401C14.1905 9.74206 13.642 10.2031 13.01 10.52ZM20 21.5H2C1.6023 21.4996 1.221 21.3414 0.939778 21.0602C0.65856 20.779 0.500397 20.3977 0.5 20V15.5C0.500397 15.1023 0.65856 14.721 0.939778 14.4398C1.221 14.1586 1.6023 14.0004 2 14H20C20.3977 14.0004 20.779 14.1586 21.0602 14.4398C21.3414 14.721 21.4996 15.1023 21.5 15.5V20C21.4996 20.3977 21.3414 20.779 21.0602 21.0602C20.779 21.3414 20.3977 21.4996 20 21.5ZM2 15.5V20H20V15.5H2Z" fill="#1EA659"/>
</svg>
