<svg width="100" height="100" viewBox="0 0 100 100" fill="none" xmlns="http://www.w3.org/2000/svg">
<path d="M82.4816 66.2754H87.7778V64.0374H82.4816V66.2754Z" fill="#EBEBEB"/>
<path d="M85.4361 69.0982L88.1073 69.0424L89.4231 69.02C89.8607 69.0106 90.2959 69.0126 90.7323 69.009L90.6431 69.0982L90.6323 66.8602L90.7321 66.96L88.0841 66.9474C87.2015 66.9464 86.3187 66.9248 85.4361 66.9146L85.4907 66.86C85.4869 67.2262 85.4735 67.5946 85.4645 67.9672L85.4361 69.0982ZM85.4361 69.0982L85.4077 67.991C85.3987 67.6176 85.3853 67.24 85.3815 66.8602L85.3809 66.8062L85.4361 66.8056C86.3187 66.7954 87.2015 66.7738 88.0841 66.7728L90.7321 66.7602L90.8325 66.7598L90.8321 66.8602L90.8213 69.0982L90.8209 69.188L90.7321 69.1872C90.2857 69.1836 89.8383 69.1856 89.3931 69.1762L88.0609 69.1538L85.4361 69.0982Z" fill="#EBEBEB"/>
<path d="M46.4282 47.1167L49.0994 47.0609L50.4152 47.0385C50.8528 47.0291 51.288 47.0311 51.7244 47.0275L51.6352 47.1167L51.6244 44.8787L51.7242 44.9785L49.0762 44.9659C48.1936 44.9649 47.3108 44.9433 46.4282 44.9331L46.4828 44.8785C46.479 45.2447 46.4656 45.6131 46.4566 45.9857L46.4282 47.1167ZM46.4282 47.1167L46.3998 46.0095C46.3908 45.6361 46.3774 45.2585 46.3736 44.8787L46.373 44.8247L46.4282 44.8241C47.3108 44.8139 48.1936 44.7923 49.0762 44.7913L51.7242 44.7787L51.8246 44.7783L51.8242 44.8787L51.8134 47.1167L51.813 47.2065L51.7242 47.2059C51.2778 47.2023 50.8304 47.2043 50.3852 47.1949L49.053 47.1725L46.4282 47.1167Z" fill="#EBEBEB"/>
<path d="M49.383 49.9385H54.6792V47.7005H49.383V49.9385Z" fill="#EBEBEB"/>
<path d="M43.4297 49.938L46.1009 49.8822L47.4167 49.8598C47.8543 49.8504 48.2895 49.8524 48.7259 49.8488L48.6367 49.938L48.6259 47.7L48.7257 47.7998L46.0777 47.7872C45.1951 47.7862 44.3123 47.7646 43.4297 47.7544L43.4843 47.6998C43.4805 48.066 43.4671 48.4344 43.4581 48.807L43.4297 49.938ZM43.4297 49.938L43.4013 48.8308C43.3923 48.4574 43.3789 48.0798 43.3751 47.7L43.3745 47.646L43.4297 47.6454C44.3123 47.6352 45.1951 47.6136 46.0777 47.6126L48.7257 47.6L48.8261 47.5996L48.8257 47.7L48.8149 49.938L48.8145 50.0278L48.7257 50.0272C48.2793 50.0236 47.8319 50.0256 47.3867 50.0162L46.0545 49.9938L43.4297 49.938Z" fill="#EBEBEB"/>
<path d="M54.5837 21.5918H59.8799V19.3538H54.5837V21.5918Z" fill="#EBEBEB"/>
<path d="M9.26907 69.0982L11.9403 69.0424L13.2561 69.02C13.6937 69.0106 14.1289 69.0126 14.5653 69.009L14.4761 69.0982L14.4653 66.8602L14.5651 66.96L11.9171 66.9474C11.0345 66.9464 10.1517 66.9248 9.26907 66.9146L9.32367 66.86C9.31987 67.2262 9.30647 67.5946 9.29747 67.9672L9.26907 69.0982ZM9.26907 69.0982L9.24067 67.991C9.23167 67.6176 9.21827 67.24 9.21447 66.8602L9.21387 66.8062L9.26907 66.8056C10.1517 66.7954 11.0345 66.7738 11.9171 66.7728L14.5651 66.7602L14.6655 66.7598L14.6651 66.8602L14.6543 69.0982L14.6539 69.188L14.5651 69.1872C14.1187 69.1836 13.6713 69.1856 13.2261 69.1762L11.8939 69.1538L9.26907 69.0982Z" fill="#EBEBEB"/>
<path d="M12.2232 12.44L14.8944 12.3842L16.2102 12.3618C16.6478 12.3524 17.083 12.3544 17.5194 12.3508L17.4302 12.44L17.4194 10.202L17.5192 10.3018L14.8712 10.2892C13.9886 10.2882 13.1058 10.2668 12.2232 10.2564L12.2778 10.2018C12.274 10.568 12.2606 10.9364 12.2516 11.309L12.2232 12.44ZM12.2232 12.44L12.1948 11.3328C12.1858 10.9594 12.1724 10.5818 12.1686 10.202L12.168 10.148L12.2232 10.1474C13.1058 10.1372 13.9886 10.1156 14.8712 10.1146L17.5192 10.102L17.6196 10.1016L17.6192 10.202L17.6084 12.44L17.608 12.5298L17.5192 12.5292C17.0728 12.5256 16.6254 12.5276 16.1802 12.5182L14.848 12.4958L12.2232 12.44Z" fill="#EBEBEB"/>
<path d="M9.26874 15.2617H14.5649V13.0237H9.26874V15.2617Z" fill="#EBEBEB"/>
<path d="M85.4361 12.44L88.1073 12.3842L89.4231 12.3618C89.8607 12.3524 90.2959 12.3544 90.7323 12.3508L90.6431 12.44L90.6323 10.202L90.7321 10.3018L88.0841 10.2892C87.2015 10.2882 86.3187 10.2668 85.4361 10.2564L85.4907 10.2018C85.4869 10.568 85.4735 10.9364 85.4645 11.309L85.4361 12.44ZM85.4361 12.44L85.4077 11.3328C85.3987 10.9594 85.3853 10.5818 85.3815 10.202L85.3809 10.148L85.4361 10.1474C86.3187 10.1372 87.2015 10.1156 88.0841 10.1146L90.7321 10.102L90.8325 10.1016L90.8321 10.202L90.8213 12.44L90.8209 12.5298L90.7321 12.5292C90.2857 12.5256 89.8383 12.5276 89.3931 12.5182L88.0609 12.4958L85.4361 12.44Z" fill="#EBEBEB"/>
<path d="M33.8542 76.3545H19.4648V92.2889H33.8542V76.3545Z" fill="#EBEBEB"/>
<path d="M12.0348 92.29H19.4648L19.4648 76.355H12.0348L12.0348 92.29Z" fill="#DBDBDB"/>
<path d="M12.5469 91.1918C13.0971 90.0586 13.6429 88.9221 14.1827 87.7815L15.7947 84.3542L17.3861 80.9117C17.9139 79.7625 18.4359 78.6089 18.9533 77.4521C18.4029 78.5851 17.8573 79.7216 17.3173 80.8622L15.7055 84.2896L14.1143 87.732C13.5863 88.8816 13.0643 90.0352 12.5469 91.1918Z" fill="#EBEBEB"/>
<path d="M12.5469 77.4521C13.0643 78.6089 13.5863 79.7625 14.1143 80.9117L15.7055 84.3542L17.3173 87.7815C17.8571 88.9221 18.4027 90.0586 18.9533 91.1916C18.4359 90.0346 17.9139 88.8812 17.3861 87.732L15.7947 84.2896L14.1827 80.8622C13.6429 79.7218 13.0971 78.5853 12.5469 77.4521Z" fill="#EBEBEB"/>
<path d="M33.8542 52.2881H19.4648V67.1247H33.8542V52.2881Z" fill="#EBEBEB"/>
<path d="M12.0353 67.126H19.4653L19.4653 52.2886H12.0353L12.0353 67.126Z" fill="#DBDBDB"/>
<path d="M25.439 55.7317H25.7434H25.9724L26.103 55.4665L26.2862 55.7317L26.5348 55.1859L26.7702 55.7317H27.4438H27.751L27.8622 55.3675L27.9668 55.7317H28.1668V52.2881H25.439V55.7317Z" fill="#DBDBDB"/>
<path d="M12.5469 66.1787C13.0971 65.1237 13.6429 64.0655 14.1827 63.0035L15.7947 59.8123L17.3861 56.6071C17.9139 55.5371 18.4359 54.4631 18.9533 53.3857C18.4029 54.4407 17.8573 55.4987 17.3173 56.5607L15.7055 59.7521L14.1143 62.9573C13.5863 64.0277 13.0643 65.1017 12.5469 66.1787Z" fill="#EBEBEB"/>
<path d="M12.5469 53.3857C13.0643 54.4627 13.5863 55.5369 14.1143 56.6069L15.7055 59.8121L17.3173 63.0035C17.8571 64.0655 18.4027 65.1237 18.9533 66.1785C18.4359 65.1013 17.9139 64.0273 17.3861 62.9571L15.7947 59.7519L14.1827 56.5607C13.6429 55.4989 13.0971 54.4407 12.5469 53.3857Z" fill="#EBEBEB"/>
<path d="M20.4129 66.2031H22.0103V64.6057H20.4129V66.2031Z" fill="white"/>
<path d="M32.8962 67.125H18.5068V76.3534H32.8962V67.125Z" fill="#DBDBDB"/>
<path d="M11.0768 76.3535H18.5068V67.1247H11.0768V76.3535Z" fill="#C7C7C7"/>
<path d="M24.4805 70.5686H24.7849H25.0139L25.1447 70.3034L25.3277 70.5686L25.5763 70.0228L25.8117 70.5686H26.4853H26.7925L26.9037 70.2044L27.0083 70.5686H27.2083V67.125H24.4805V70.5686Z" fill="white"/>
<path d="M11.5884 75.8042C12.1386 75.1336 12.6844 74.4612 13.2242 73.7862L14.8362 71.758L16.4276 69.721C16.9554 69.041 17.4774 68.3584 17.9948 67.6738C17.4444 68.3442 16.8988 69.0168 16.3588 69.6918L14.747 71.72L13.1558 73.757C12.6278 74.437 12.106 75.1196 11.5884 75.8042Z" fill="#DBDBDB"/>
<path d="M11.5884 67.6738C12.1058 68.3584 12.6278 69.041 13.1558 69.721L14.747 71.758L16.3588 73.7862C16.8986 74.4612 17.4442 75.1336 17.9948 75.804C17.4774 75.1194 16.9554 74.4368 16.4276 73.7568L14.8362 71.7198L13.2242 69.6916C12.6844 69.0168 12.1386 68.3444 11.5884 67.6738Z" fill="#DBDBDB"/>
<path d="M88.9246 78.3496H74.5352V92.2888H88.9246V78.3496Z" fill="#DBDBDB"/>
<path d="M67.1052 92.29H74.5352V78.3502H67.1052V92.29Z" fill="#C7C7C7"/>
<path d="M80.5088 81.7932H80.8132H81.042L81.1728 81.528L81.356 81.7932L81.6044 81.2472L81.8398 81.7932H82.5134H82.8208L82.932 81.4288L83.0366 81.7932H83.2364V78.3496H80.5088V81.7932Z" fill="white"/>
<path d="M67.6172 91.4597C68.1674 90.4469 68.7132 89.4311 69.253 88.4115L70.865 85.3479L72.4564 82.2711C72.9842 81.2439 73.5062 80.2129 74.0236 79.1787C73.4732 80.1915 72.9276 81.2071 72.3876 82.2267L70.7758 85.2903L69.1846 88.3673C68.6566 89.3945 68.1346 90.4257 67.6172 91.4597Z" fill="#DBDBDB"/>
<path d="M67.6172 79.1787C68.1346 80.2127 68.6566 81.2437 69.1846 82.2709L70.7758 85.3479L72.3876 88.4115C72.9274 89.4311 73.4732 90.4469 74.0236 91.4595C73.5062 90.4255 72.9842 89.3943 72.4564 88.3671L70.865 85.2903L69.253 82.2269C68.7132 81.2073 68.1674 80.1917 67.6172 79.1787Z" fill="#DBDBDB"/>
<path d="M63.9033 9.3916V43.4116H87.3153V9.3916H63.9033ZM86.4513 42.5476H64.7673V10.2556H86.4513V42.5476Z" fill="#EBEBEB"/>
<path d="M86.4511 10.2559H64.7671V42.5479H86.4511V10.2559Z" fill="white"/>
<path d="M64.768 27.833L86.4521 27.833V26.9694L64.768 26.9694V27.833Z" fill="#EBEBEB"/>
<path d="M62.3135 45.8896H88.9067V43.4107H62.3135V45.8896Z" fill="#DBDBDB"/>
<path d="M63.0181 46.8819L88.2017 47.4092V45.8896H63.0181V46.8819Z" fill="#EBEBEB"/>
<path d="M64.7686 10.2549H86.4528V32.4415H64.7686V10.2549ZM85.6528 11.0549H65.5684V31.6415H85.6528V11.0549Z" fill="#DBDBDB"/>
<path d="M79.5319 10.2549H79.1001V31.6415H79.5319V10.2549Z" fill="#DBDBDB"/>
<path d="M72.1208 10.2549H71.689V31.6415H72.1208V10.2549Z" fill="#DBDBDB"/>
<path d="M12.6841 9.3916V43.4116H36.0961V9.3916H12.6841ZM35.2321 42.5476H13.5481V10.2556H35.2321V42.5476Z" fill="#EBEBEB"/>
<path d="M35.2323 10.2559H13.5483V42.5479H35.2323V10.2559Z" fill="white"/>
<path d="M13.5472 27.833L35.2314 27.833V26.9694L13.5472 26.9694V27.833Z" fill="#EBEBEB"/>
<path d="M11.0928 45.8896H37.686V43.4107H11.0928V45.8896Z" fill="#DBDBDB"/>
<path d="M11.7979 46.8819L36.9815 47.4092V45.8896H11.7979V46.8819Z" fill="#EBEBEB"/>
<path d="M13.5474 10.2539H35.2316V32.4405H13.5474V10.2539ZM34.4318 11.0539H14.3474V31.6405H34.4318V11.0539Z" fill="#DBDBDB"/>
<path d="M28.3112 10.2539H27.8794V31.6405H28.3112V10.2539Z" fill="#DBDBDB"/>
<path d="M20.9001 10.2539H20.4683V31.6405H20.9001V10.2539Z" fill="#DBDBDB"/>
<path d="M67.7431 75.8115H47.8071V92.2831H67.7431V75.8115Z" fill="#1EA659"/>
<path opacity="0.1" d="M67.7431 75.8115H47.8071V92.2831H67.7431V75.8115Z" fill="black"/>
<path d="M75.6424 75.8115H67.7432V92.2839H75.6424V75.8115Z" fill="#1EA659"/>
<path opacity="0.2" d="M75.6424 75.8115H67.7432V92.2839H75.6424V75.8115Z" fill="black"/>
<path d="M75.0984 91.1493C74.5134 89.9779 73.9332 88.8033 73.3594 87.6241L71.6456 84.0811L69.9538 80.5227C69.3926 79.3347 68.8376 78.1423 68.2876 76.9463C68.8728 78.1175 69.453 79.2923 70.0268 80.4713L71.7404 84.0143L73.432 87.5729C73.9932 88.7609 74.5482 89.9533 75.0984 91.1493Z" fill="#1EA659"/>
<path d="M75.0984 76.9463C74.5482 78.1421 73.9932 79.3345 73.432 80.5225L71.7404 84.0811L70.0268 87.6241C69.4528 88.8031 68.8728 89.9779 68.2876 91.1491C68.8376 89.9531 69.3926 88.7607 69.9538 87.5727L71.6456 84.0143L73.3594 80.4713C73.9332 79.2925 74.5134 78.1177 75.0984 76.9463Z" fill="#1EA659"/>
<path d="M59.1848 79.3709H58.87H58.6334L58.4982 79.0967L58.309 79.3709L58.052 78.8067L57.8088 79.3709H57.1124H56.7948L56.6798 78.9943L56.5716 79.3709H56.3652V75.8115H59.1848V79.3709Z" fill="white"/>
<path d="M68.9441 59.3408H54.0703V75.8116H68.9441V59.3408Z" fill="#1EA659"/>
<path d="M76.6245 59.3408H68.9443V75.8122H76.6245V59.3408Z" fill="#1EA659"/>
<path opacity="0.1" d="M76.6245 59.3408H68.9443V75.8122H76.6245V59.3408Z" fill="black"/>
<g opacity="0.1">
<path d="M67.8541 74.6778C66.7619 73.5064 65.6785 72.3318 64.6069 71.1528L61.4069 67.61L58.2479 64.0518C57.2001 62.8638 56.1637 61.6716 55.1367 60.4756C56.2293 61.6468 57.3125 62.8214 58.3841 64.0004L61.5837 67.5432L64.7423 71.1014C65.7907 72.2898 66.8269 73.4822 67.8541 74.6778Z" fill="black"/>
<path d="M67.8542 60.4756C66.827 61.6714 65.7908 62.8636 64.7428 64.0516L61.5842 67.61L58.3846 71.1528C57.3128 72.3318 56.2298 73.5064 55.1372 74.6776C56.1642 73.4818 57.2004 72.2894 58.2484 71.1014L61.4074 67.5432L64.6074 64.0004C65.6786 62.8214 66.762 61.6468 67.8542 60.4756Z" fill="black"/>
</g>
<path d="M75.5434 73.0254H74.1978V74.9256H75.5434V73.0254Z" fill="white"/>
<path d="M8.29102 92.2902L18.7184 92.2416L29.1458 92.224L50.0006 92.1904L70.8554 92.2238L81.2828 92.2412L91.7102 92.2902L81.2828 92.3392L70.8554 92.3568L50.0006 92.39L29.1458 92.3566L18.7184 92.3388L8.29102 92.2902Z" fill="#263238"/>
<path d="M57.647 35.2852C57.7602 35.3538 57.8732 35.4248 57.9856 35.498" stroke="#263238" stroke-width="0.15" stroke-miterlimit="10"/>
<path d="M58.6514 35.96C62.2692 38.6362 65.0864 43.5024 61.9332 48.2574C60.0762 51.058 56.928 49.9048 55.8424 48.901C54.6434 47.7922 55.7466 46.657 56.9442 47.4158C59.0204 48.7314 59.3122 51.7756 57.0118 54.0262C55.5128 55.4928 53.5632 55.5846 52.4902 55.4984" stroke="#263238" stroke-width="0.15" stroke-miterlimit="10" stroke-dasharray="0.81 0.81"/>
<path d="M52.0885 55.4548C51.8399 55.4196 51.6953 55.3838 51.6953 55.3838" stroke="#263238" stroke-width="0.15" stroke-miterlimit="10"/>
<path d="M50.061 55.2304C49.9668 56.037 51.6009 56.4784 51.7239 55.4248C51.8471 54.371 50.1552 54.4238 50.061 55.2304Z" fill="#263238"/>
<path d="M52.2063 56.553C52.0541 56.856 51.5169 56.8972 50.9609 56.5108C50.4049 56.1244 50.0205 55.4554 50.0205 55.4554C50.0205 55.4554 50.7873 55.3626 51.4293 55.578C52.0715 55.7932 52.3593 56.2486 52.2063 56.553Z" fill="#EBEBEB"/>
<path d="M50.02 55.4561C50.3356 55.5977 50.645 55.7519 50.955 55.9051C51.263 56.0621 51.5714 56.2181 51.8736 56.3869C51.5578 56.2453 51.2486 56.0911 50.9386 55.9379C50.6306 55.7809 50.3222 55.6249 50.02 55.4561Z" fill="#263238"/>
<path d="M51.4719 56.5479C51.3995 56.4655 51.3389 56.3755 51.2773 56.2859C51.2193 56.1941 51.1603 56.1029 51.1133 56.0039C51.1859 56.0861 51.2463 56.1763 51.3079 56.2659C51.3657 56.3577 51.4247 56.4489 51.4719 56.5479Z" fill="#263238"/>
<path d="M50.7969 55.8466C50.9075 55.8154 51.0201 55.7982 51.1325 55.7796C51.2455 55.7654 51.3585 55.7502 51.4733 55.749C51.3627 55.7804 51.2501 55.7976 51.1377 55.8158C51.0247 55.83 50.9119 55.8452 50.7969 55.8466Z" fill="#263238"/>
<path d="M50.6262 55.9779C50.5884 55.9363 50.5634 55.8883 50.5372 55.8409C50.515 55.7915 50.4916 55.7427 50.481 55.6875C50.5188 55.7291 50.5438 55.7771 50.57 55.8245C50.5924 55.8739 50.6156 55.9227 50.6262 55.9779Z" fill="#263238"/>
<path d="M52.4645 54.4596C52.3863 54.1296 51.8731 53.9656 51.2429 54.2134C50.6127 54.4612 50.0845 55.0236 50.0845 55.0236C50.0845 55.0236 50.8093 55.2906 51.4837 55.2292C52.1581 55.1678 52.5431 54.791 52.4645 54.4596Z" fill="#EBEBEB"/>
<path d="M50.084 55.0243C50.4238 54.9593 50.7604 54.8805 51.0974 54.8029C51.4332 54.7211 51.7694 54.6405 52.1022 54.5459C51.7624 54.6107 51.4258 54.6895 51.0888 54.7673C50.753 54.8491 50.417 54.9299 50.084 55.0243Z" fill="#263238"/>
<path d="M51.7488 54.2959C51.6594 54.3593 51.5796 54.4331 51.499 54.5059C51.4214 54.5819 51.343 54.6571 51.2744 54.7425C51.364 54.6791 51.4436 54.6053 51.5242 54.5325C51.6018 54.4565 51.6802 54.3813 51.7488 54.2959Z" fill="#263238"/>
<path d="M50.9297 54.8232C51.0301 54.879 51.1357 54.9218 51.2409 54.9656C51.3477 55.0054 51.4539 55.0464 51.5655 55.074C51.4651 55.018 51.3595 54.9754 51.2543 54.9316C51.1477 54.8918 51.0413 54.851 50.9297 54.8232Z" fill="#263238"/>
<path d="M50.7941 54.6562C50.7479 54.688 50.7123 54.7288 50.6759 54.769C50.6429 54.8118 50.6089 54.8541 50.5859 54.9055C50.6323 54.8737 50.6677 54.8329 50.7041 54.7927C50.7371 54.7497 50.7709 54.7075 50.7941 54.6562Z" fill="#263238"/>
<path d="M50.0609 55.2296C50.2215 55.2484 50.3367 55.3938 50.3179 55.5546C50.2991 55.7152 50.1537 55.8302 49.9929 55.8116C49.8323 55.7928 49.7173 55.6474 49.7359 55.4866C49.7547 55.3258 49.9003 55.2108 50.0609 55.2296Z" fill="#455A64"/>
<path d="M50.1287 54.6475C50.2893 54.6663 50.4045 54.8117 50.3857 54.9725C50.3669 55.1333 50.2215 55.2481 50.0607 55.2295C49.9001 55.2107 49.7851 55.0653 49.8037 54.9045C49.8225 54.7439 49.9681 54.6287 50.1287 54.6475Z" fill="#455A64"/>
<path d="M31.996 74.0605C31.996 74.0605 27.7384 82.5993 27.7368 82.6058C27.3844 84.3693 27.1072 85.922 27.0386 86.7386C27.0376 86.7428 27.0366 86.7471 27.0378 86.7517C27.0116 87.0597 27.0156 87.2605 27.059 87.3225C27.0622 87.3277 27.0634 87.3325 27.0672 87.3357C27.5212 87.7961 41.5336 91.0224 42.0602 90.9704C42.5884 90.9209 42.48 89.4135 42.0362 88.8545C41.588 88.2945 36.7776 84.6603 36.7776 84.6603L40.947 76.1085L31.996 74.0605Z" fill="#D3766A"/>
<path d="M41.848 90.9707C41.322 91.0217 27.5206 87.7953 27.068 87.3361C27.0636 87.3317 27.0614 87.3273 27.0592 87.3227C27.0148 87.2605 27.0126 87.0587 27.037 86.7525C27.037 86.7459 27.037 86.7437 27.0392 86.7393C27.108 85.9227 27.3854 84.3695 27.736 82.6053C27.736 82.6031 28.283 81.5103 28.7556 80.5605L37.5948 82.9849L36.7782 84.6602C36.7782 84.6602 41.3776 88.2949 41.8236 88.8539C42.2696 89.4131 42.3762 90.9197 41.848 90.9707Z" fill="#EBEBEB"/>
<path d="M42.0394 90.7468C41.5066 90.7872 27.461 87.2062 27.0134 86.73C26.84 86.552 27.2426 84.475 27.801 81.9794C27.8072 81.9534 27.8132 81.9274 27.8192 81.9014L36.9066 84.1104L36.8638 84.2634C36.8638 84.2634 41.627 88.0386 42.0644 88.6142C42.4978 89.1868 42.5718 90.7086 42.0394 90.7468Z" fill="#263238"/>
<path d="M42.0193 90.1611C39.6665 89.4993 30.1141 87.0523 27.7381 86.5769C27.7187 86.5731 27.7153 86.5861 27.7343 86.5917C30.0521 87.2985 39.6239 89.6681 42.0095 90.1997C42.0599 90.2111 42.0689 90.1751 42.0193 90.1611Z" fill="white"/>
<path d="M37.6181 84.4841C36.7307 84.0727 35.5547 83.9251 34.6735 84.4075C34.6393 84.4261 34.6665 84.4743 34.6991 84.4727C35.6923 84.4173 36.5981 84.4501 37.5845 84.6009C37.6539 84.6115 37.6817 84.5135 37.6181 84.4841Z" fill="white"/>
<path d="M38.1875 85.0612C37.3001 84.6498 36.1241 84.5024 35.2429 84.9846C35.2087 85.0032 35.2359 85.0516 35.2685 85.0496C36.2617 84.9942 37.1675 85.027 38.1537 85.1778C38.2233 85.1886 38.2511 85.0906 38.1875 85.0612Z" fill="white"/>
<path d="M38.7568 85.6374C37.8694 85.226 36.6934 85.0784 35.8122 85.5608C35.778 85.5794 35.805 85.6277 35.8378 85.6259C36.8308 85.5705 37.7368 85.6033 38.723 85.7541C38.7926 85.7647 38.8202 85.6668 38.7568 85.6374Z" fill="white"/>
<path d="M42.3824 90.2976C42.6092 90.4586 42.3396 91.289 42.1408 91.3104C41.942 91.3318 26.6448 87.3598 26.3994 87.2352C26.1538 87.1104 26.4878 86.201 26.8022 86.2302C27.1166 86.259 42.3824 90.2976 42.3824 90.2976Z" fill="#1EA659"/>
<path d="M29.737 84.0656C28.8486 83.2968 27.6524 84.6764 28.5422 85.4464C29.4308 86.2152 30.627 84.8356 29.737 84.0656Z" fill="white"/>
<path d="M28.7866 79.8779L39.034 82.4623C39.034 82.4623 48.5864 65.2239 48.3726 60.8427C48.0774 54.7919 40.9812 36.2139 40.9812 36.2139H32.4858C32.4858 36.2139 38.1248 56.3043 38.1976 59.6841C38.2356 61.4521 28.7866 79.8779 28.7866 79.8779Z" fill="#455A64"/>
<path d="M39.4721 80.3836C38.9261 80.1654 34.0477 78.7568 30.4091 77.9878C30.3847 77.9826 30.3779 78.017 30.4005 78.025C31.5469 78.43 38.7777 80.3308 39.4569 80.4244C39.4793 80.4274 39.4967 80.3936 39.4721 80.3836Z" fill="#263238"/>
<path d="M38.9053 55.3694C38.2299 52.5334 37.5169 49.7056 36.7461 46.894C35.9719 44.0698 35.1715 41.2496 34.2787 38.4604C34.1697 38.1198 34.0571 37.7802 33.9455 37.4404C33.9283 37.388 33.8481 37.412 33.8635 37.4652C34.6585 40.2418 35.4675 43.0148 36.2227 45.8026C36.9779 48.5902 37.7023 51.3864 38.3831 54.1932C38.5517 54.8882 38.7177 55.5838 38.8811 56.28C39.0499 56.9988 39.2313 57.7194 39.3153 58.4542C39.3959 59.1602 39.3557 59.8596 39.1749 60.5474C38.9973 61.2226 38.7115 61.862 38.4203 62.4944C37.1947 65.1548 35.9655 67.8134 34.7455 70.4764C33.5229 73.145 33.3237 73.7522 32.1517 76.4436C32.0063 76.7774 31.8607 77.1108 31.7209 77.447C31.7117 77.4692 31.7429 77.4878 31.7543 77.4654C33.0943 74.8292 33.3011 74.1938 34.5451 71.5114C35.7967 68.8124 37.0453 66.1118 38.2877 63.4086C38.8481 62.1894 39.5063 60.9452 39.5901 59.5808C39.6771 58.1628 39.2305 56.7348 38.9053 55.3694Z" fill="#263238"/>
<path d="M39.3687 77.4377C39.3687 77.4377 39.6977 86.8367 39.6975 86.8431C39.7509 88.6409 39.8299 90.2159 39.9467 91.0271C39.9467 91.0315 39.9467 91.0359 39.9487 91.0403C39.9925 91.3463 40.0415 91.5411 40.0979 91.5917C40.1023 91.5961 40.1045 91.6005 40.1087 91.6027C40.6545 91.9493 55.0337 91.9409 55.5349 91.7719C56.0383 91.6049 55.5937 90.1605 55.0355 89.7157C54.4729 89.2707 48.9683 86.8117 48.9683 86.8117L48.5503 77.4199L39.3687 77.4377Z" fill="#D3766A"/>
<path d="M39.6304 84.9135C39.6304 84.9135 39.6978 86.8365 39.6978 86.8431C39.7512 88.6409 39.8302 90.2159 39.947 91.0271C39.947 91.0315 39.947 91.0359 39.949 91.0403C40.0104 91.3421 40.0636 91.5411 40.0982 91.5917C40.1026 91.5961 40.1048 91.6005 40.109 91.6027C40.6548 91.9493 55.034 91.9409 55.5352 91.7719C56.0386 91.6049 55.594 90.1605 55.0358 89.7157C54.4732 89.2707 48.9686 86.8117 48.9686 86.8117L48.927 84.8525L39.6304 84.9135Z" fill="#EBEBEB"/>
<path d="M55.5419 91.7546C55.0331 91.9174 40.5399 91.6926 39.9939 91.3332C39.7841 91.2002 39.6937 89.0866 39.6579 86.5294C39.6579 86.5026 39.6577 86.476 39.6577 86.4492L49.0097 86.4898L49.0037 86.6484C49.0037 86.6484 54.5127 89.2158 55.0719 89.6742C55.6261 90.131 56.0509 91.5942 55.5419 91.7546Z" fill="#263238"/>
<path d="M55.3869 91.1901C52.9447 91.0923 43.0853 90.9279 40.6639 91.0167C40.6441 91.0175 40.6439 91.0309 40.6637 91.0321C43.0821 91.1819 52.9427 91.2665 55.3865 91.2301C55.4379 91.2293 55.4383 91.1921 55.3869 91.1901Z" fill="white"/>
<path d="M49.7889 86.6888C48.8303 86.4944 47.6521 86.6238 46.9069 87.2974C46.8779 87.3234 46.9155 87.364 46.9469 87.3548C47.9001 87.0706 48.7887 86.8924 49.7833 86.8102C49.8533 86.8044 49.8575 86.7026 49.7889 86.6888Z" fill="white"/>
<path d="M50.4764 87.1175C49.5178 86.9231 48.3396 87.0525 47.5944 87.7261C47.5654 87.7521 47.6032 87.7929 47.6342 87.7835C48.5874 87.4993 49.4762 87.3211 50.4706 87.2389C50.5408 87.2331 50.545 87.1313 50.4764 87.1175Z" fill="white"/>
<path d="M51.1639 87.5472C50.2053 87.3528 49.0271 87.4822 48.2819 88.1558C48.2529 88.1818 48.2905 88.2224 48.3219 88.2132C49.2751 87.929 50.1637 87.7508 51.1583 87.6686C51.2281 87.6628 51.2325 87.561 51.1639 87.5472Z" fill="white"/>
<path d="M55.7712 91.2384C56.0292 91.3424 55.9596 92.2126 55.7712 92.2796C55.583 92.3466 39.7816 92.0316 39.5138 91.9672C39.246 91.9028 39.3598 90.9408 39.6726 90.8962C39.985 90.8514 55.7712 91.2384 55.7712 91.2384Z" fill="#1EA659"/>
<path d="M42.0254 88.1094C40.9828 87.5676 40.1392 89.187 41.1836 89.7296C42.2262 90.2714 43.0698 88.652 42.0254 88.1094Z" fill="white"/>
<path d="M40.8762 36.2051C40.8762 36.2051 40.8762 36.2073 40.874 36.2139C40.8368 36.3885 38.7184 44.7617 38.4542 44.9189C38.155 45.0957 46.15 55.8541 47.099 61.1355C47.706 64.5135 49.0882 84.2035 49.0882 84.2035H38.9048C38.9048 84.2035 37.9068 67.4831 37.5722 61.9719C37.4426 59.8347 29.4214 49.9499 28.6604 43.3607C28.4204 41.2839 29.9122 36.2051 29.9122 36.2051H40.8762Z" fill="#455A64"/>
<path d="M38.6467 76.2322C38.5257 73.4616 38.4153 70.6862 38.2135 67.9202C38.0991 66.3532 37.8757 64.8354 37.7197 63.2718C37.7115 63.1898 37.6453 63.1704 37.6475 63.2548C37.7199 66.0374 37.9491 68.7886 38.0983 71.568C38.2471 74.339 38.3879 74.9964 38.5451 77.7668C38.6341 79.3348 38.7111 80.9034 38.8333 82.469C38.8351 82.4934 38.8713 82.4928 38.8713 82.468C38.8777 79.6856 38.7683 79.0116 38.6467 76.2322Z" fill="#263238"/>
<path d="M47.1109 61.2522C47.0139 60.5228 46.8905 59.7938 46.6853 59.0864C46.4845 58.3944 46.1911 57.7348 45.8591 57.0966C45.1657 55.7638 44.3753 54.4758 43.6137 53.1812C42.8423 51.8696 42.0585 50.5658 41.2541 49.2742C40.8021 48.5482 40.3479 47.8236 39.8909 47.1004C39.4287 46.369 38.9385 45.6544 38.4591 44.934C38.4401 44.9054 38.3961 44.9324 38.4137 44.9622C39.1935 46.269 39.9653 47.5804 40.7451 48.8874C41.5247 50.1942 42.2935 51.5076 43.0627 52.8206C43.8191 54.112 44.5769 55.4046 45.2995 56.7154C45.6459 57.3436 45.9747 57.9832 46.2175 58.6596C46.4665 59.353 46.6159 60.0758 46.7323 60.8018C47.0033 62.4952 47.2257 64.199 47.5671 65.8804C47.5713 65.9014 47.6059 65.8958 47.6043 65.8744C47.4977 64.3312 47.3149 62.7856 47.1109 61.2522Z" fill="#263238"/>
<path d="M48.1964 82.4395C47.6132 82.3637 43.1722 82.2105 39.4564 82.3689C39.4314 82.3699 39.4332 82.4049 39.4574 82.4069C40.6684 82.5145 47.5106 82.5605 48.1916 82.4825C48.2142 82.4801 48.2228 82.4429 48.1964 82.4395Z" fill="#263238"/>
<path d="M39.7867 44.3296C38.7453 44.688 37.7403 45.1968 36.7793 45.7302C36.7417 45.751 36.7665 45.8096 36.8073 45.792C37.8203 45.357 38.8535 44.9406 39.8413 44.4504C39.9189 44.412 39.8665 44.302 39.7867 44.3296Z" fill="#263238"/>
<path d="M40.0915 37.3904C40.0887 37.3554 40.0273 37.3476 40.0275 37.3854C40.0357 38.5882 39.9591 39.6462 39.8575 40.7702C39.8105 41.292 39.3907 44.1758 38.4857 43.9656C38.3343 43.9304 38.2569 43.7812 38.2331 43.5528C38.2045 43.2782 38.3079 42.9414 38.3533 42.6684C38.4537 42.0648 38.5345 41.459 38.5863 40.8492C38.6831 39.7108 38.6879 38.5724 38.5495 37.4376C38.5449 37.4004 38.4911 37.4032 38.4911 37.4408C38.4925 39.0166 38.4513 40.5896 38.2155 42.1502C38.1023 42.9002 37.7245 44.0296 38.5089 44.145C39.3081 44.2626 39.8249 42.371 39.9223 41.8536C40.1949 40.4102 40.2055 38.8512 40.0915 37.3904Z" fill="#263238"/>
<path d="M38.5101 44.0437C38.4283 44.2373 38.3625 44.4389 38.3067 44.6415C38.2633 44.7989 38.2041 44.9689 38.2221 45.1329C38.2255 45.1647 38.2677 45.1677 38.2847 45.1463C38.3907 45.0117 38.4357 44.8277 38.4949 44.6681C38.5637 44.4833 38.6365 44.2997 38.7001 44.1129C38.7423 43.9889 38.5605 43.9243 38.5101 44.0437Z" fill="#263238"/>
<path d="M38.9354 64.6431C38.8412 63.2205 38.8462 61.7175 38.2412 60.3969C37.9412 59.7419 37.5266 59.1497 37.1326 58.5493C36.7186 57.9183 36.311 57.2827 35.9088 56.6439C34.3008 54.0893 32.7652 51.4843 31.3582 48.8131C30.6806 47.5269 30.0566 46.1991 29.7162 44.7793C29.3598 43.2939 29.3458 41.7381 29.5312 40.2273C29.5776 39.8497 29.6292 39.4733 29.6928 39.0981C29.6974 39.0707 29.6562 39.0597 29.6502 39.0875C29.3448 40.5323 29.1846 42.0175 29.3156 43.4931C29.4418 44.9147 29.8942 46.2613 30.4898 47.5507C31.1102 48.8935 31.8478 50.1855 32.5754 51.4723C33.3254 52.7989 34.0974 54.1131 34.8934 55.4127C35.6854 56.7057 36.5182 57.9715 37.3442 59.2427C37.744 59.8579 38.1158 60.4917 38.3186 61.2019C38.525 61.9249 38.581 62.6779 38.6294 63.4249C38.8332 66.5735 39.6323 77.0387 39.9134 80.1711C39.9489 80.5687 39.9848 80.9663 40.0214 81.3639C40.0246 81.3989 40.078 81.3985 40.0766 81.3625C39.9554 78.2215 39.1432 67.7815 38.9354 64.6431Z" fill="#263238"/>
<path d="M34.0425 38.9577C34.0387 38.9355 34.0059 38.9435 34.0053 38.9637C33.9761 39.8387 34.0007 40.7409 33.6643 41.5667C33.3555 42.3243 32.7361 42.8559 32.0423 43.2547C31.6413 43.4851 31.2193 43.6779 30.7967 43.8649C30.7663 43.8783 30.7783 43.9267 30.8121 43.9159C31.6193 43.6601 32.4381 43.3819 33.1075 42.8453C33.8243 42.2707 34.1375 41.4367 34.1729 40.5353C34.1933 40.0055 34.1313 39.4787 34.0425 38.9577Z" fill="#263238"/>
<path d="M38.4794 24.7131C39.6216 28.2255 42.7128 34.2077 43.817 34.9287C44.7948 35.5673 49.3972 34.8543 51.4098 34.3687C52.163 34.1871 50.47 28.4543 49.6688 28.6647C48.7074 28.9171 45.8404 29.5621 45.632 29.4039C45.403 29.2303 42.5348 25.6829 40.486 23.5879C38.6286 21.6887 38.0474 23.3845 38.4794 24.7131Z" fill="#D3766A"/>
<path d="M50.9736 34.4129C51.3598 34.3639 54.6258 34.2161 56.1244 33.3983C56.918 32.9653 58.965 31.5287 58.762 31.0131C58.5766 30.5423 57.9188 30.7981 57.9188 30.7981C57.9188 30.7981 58.822 30.1443 58.5568 29.4929C58.2914 28.8415 57.204 29.3305 57.204 29.3305C57.204 29.3305 58.0826 28.5915 57.7716 27.9607C57.4604 27.3299 56.4494 28.0047 56.4494 28.0047C56.4494 28.0047 57.2842 27.3665 56.8092 26.9547C56.2378 26.4593 54.8316 27.8099 53.8824 28.1269C53.6668 28.1989 49.4092 29.2747 49.4092 29.2747L50.9736 34.4129Z" fill="#D3766A"/>
<path d="M56.4132 27.9861C55.3766 28.9769 54.7518 29.2311 53.3682 29.5111C53.3412 29.5165 53.3432 29.5581 53.372 29.5549C54.7518 29.4039 55.5816 29.1981 56.4638 28.0337C56.5068 27.9769 56.4624 27.9391 56.4132 27.9861Z" fill="#263238"/>
<path d="M57.1698 29.3066C56.0034 30.2416 55.328 30.5234 53.9006 30.9232C53.8804 30.9288 53.8878 30.9636 53.9088 30.9596C55.342 30.6844 56.165 30.46 57.2078 29.3728C57.255 29.3236 57.2232 29.2638 57.1698 29.3066Z" fill="#263238"/>
<path d="M57.8491 30.8158C56.6545 31.6396 55.9273 31.9804 54.4917 32.1908C54.4579 32.1958 54.4617 32.2456 54.4963 32.244C55.9811 32.1718 56.8915 31.7534 57.8703 30.855C57.9369 30.7934 57.9243 30.7638 57.8491 30.8158Z" fill="#263238"/>
<path d="M48.2939 29.4588C48.2939 29.4588 49.4833 28.1124 50.1365 27.636C50.7895 27.1598 53.8765 26.2806 54.1043 26.9366C54.3983 27.7836 52.7163 28.6422 51.8375 28.955C51.8375 28.955 52.5195 30.9134 51.4455 31.7908C50.3715 32.6682 48.2939 29.4588 48.2939 29.4588Z" fill="#D3766A"/>
<path d="M54.1089 27.1959C53.8199 28.1617 52.6399 28.4979 51.8101 28.8651C51.7469 28.8931 51.7473 28.9535 51.7781 28.9977C52.0091 29.8377 52.0905 31.0899 51.5021 31.7965C51.4849 31.8171 51.5119 31.8445 51.5321 31.8261C52.2659 31.1537 52.2865 29.9171 51.9745 29.0133C52.8313 28.6501 54.0001 28.2609 54.1185 27.1983C54.1189 27.1923 54.1107 27.1899 54.1089 27.1959Z" fill="#263238"/>
<path d="M50.9736 35.4019L49.4644 28.5337L45.733 29.2109C44.262 27.5251 41.3192 24.1551 40.1268 23.1425C38.728 21.9543 37.8116 22.8481 38.325 24.6461C39.499 28.7587 42.9084 34.7899 43.8074 35.3687C45.0954 36.1977 50.9736 35.4019 50.9736 35.4019Z" fill="#1EA659"/>
<path opacity="0.1" d="M45.6449 31.2989C45.8175 31.3593 46.0273 31.3401 46.2071 31.3649C46.6017 31.4191 46.7829 32.0085 46.4199 32.2321C46.0295 32.4723 45.5605 32.5101 45.1301 32.3425C44.7285 32.1861 44.3925 31.7985 44.4783 31.3469C44.5535 30.9509 44.9629 30.8377 45.2771 31.0381C45.4053 31.1199 45.4995 31.2479 45.6449 31.2989ZM44.6131 29.6643C44.4693 30.3455 45.5201 30.9281 46.0587 30.5659C46.2517 30.4363 46.2449 30.1401 46.0723 29.9995C45.9155 29.8719 45.7829 29.8521 45.6429 29.7361C45.5745 29.6795 45.5887 29.6909 45.5155 29.6019C45.4245 29.4911 45.3463 29.4073 45.2169 29.3353C44.9569 29.1907 44.6663 29.4127 44.6131 29.6643ZM42.9345 29.7005C42.7179 29.9819 42.8815 30.4067 43.0711 30.6623C43.2585 30.9149 43.5371 31.0783 43.8575 31.0443C44.0985 31.0187 44.2061 30.6829 44.0057 30.5329C43.8805 30.4391 43.7833 30.3129 43.7257 30.1835C43.6317 29.9725 43.5681 29.6987 43.3317 29.6057C43.1959 29.5521 43.0275 29.5799 42.9345 29.7005ZM47.3647 34.1481C47.0831 34.7189 47.9411 35.3665 48.4617 35.2541C48.6355 35.2165 48.8037 34.9879 48.6487 34.8243C48.5245 34.6933 48.3765 34.5879 48.2607 34.4485C48.1195 34.2785 48.0417 34.0597 47.8193 33.9747C47.6407 33.9065 47.4507 33.9735 47.3647 34.1481ZM39.3089 27.1585C39.2609 27.0685 39.1949 26.9805 39.1129 26.9165C39.2249 27.2025 39.3429 27.4905 39.4669 27.7785C39.4909 27.5685 39.3969 27.3305 39.3089 27.1585ZM40.4219 26.5559C40.4079 26.0625 40.1681 25.5969 39.8707 25.2139C39.6309 24.9053 39.2159 24.4089 38.7753 24.5197C38.6713 24.5459 38.6237 24.6431 38.6157 24.7401C38.5877 25.0781 38.9757 25.4413 39.1423 25.7103C39.3531 26.0509 39.5015 26.4271 39.7171 26.7637C39.9197 27.0805 40.4329 26.9425 40.4219 26.5559ZM40.2921 28.7071C40.4511 28.6953 40.5911 28.5901 40.6291 28.4313C40.6673 28.2721 40.6433 28.1203 40.5991 27.9651C40.5627 27.8377 40.4977 27.6691 40.3901 27.5835C40.2269 27.4543 39.9761 27.4987 39.9227 27.7215C39.8957 27.8343 39.9157 27.9589 39.9185 28.0741C39.9197 28.1249 39.9171 28.1753 39.9143 28.2261C39.9103 28.3029 39.9259 28.3757 39.9387 28.4513C39.9637 28.5995 40.1483 28.7179 40.2921 28.7071Z" fill="#030402"/>
<path d="M49.6672 34.7985C49.4956 34.3927 49.0732 32.6219 48.9728 32.1797C48.8744 31.7465 48.53 29.9501 48.4284 29.4955C48.4228 29.4707 48.4566 29.4555 48.4626 29.4807C48.5708 29.9289 49.0538 31.6919 49.1584 32.1329C49.2632 32.5753 49.6632 34.3461 49.6902 34.7923C49.691 34.8075 49.6728 34.8115 49.6672 34.7985Z" fill="#263238"/>
<path opacity="0.1" d="M46.2044 35.744C45.155 35.7382 44.2336 35.643 43.808 35.3688C42.9082 34.7896 39.4992 28.7588 38.3254 24.6464C38.03 23.6144 38.2068 22.8798 38.6752 22.666L46.2044 35.744Z" fill="black"/>
<path d="M29.2774 37.1413C29.3026 37.1785 41.7826 38.7795 41.9164 38.6639C41.9656 38.6209 42.0674 37.6105 42.0674 37.6105C42.0674 37.6105 40.9234 24.0229 40.3312 23.2261C39.813 22.5291 38.2422 22.0263 37.1716 22.4801C34.9254 23.4321 29.5474 35.5723 29.6054 36.0729C29.6054 36.0725 29.2456 37.0935 29.2774 37.1413Z" fill="#1EA659"/>
<path opacity="0.1" d="M33.7764 35.4872C33.9486 35.6 34.183 35.636 34.3726 35.7116C34.789 35.8778 34.8272 36.5708 34.37 36.7166C33.8784 36.8734 33.3558 36.7876 32.931 36.4878C32.5346 36.208 32.2728 35.6936 32.4888 35.2236C32.6782 34.8114 33.1562 34.7986 33.4452 35.1028C33.5632 35.2268 33.6314 35.3922 33.7764 35.4872ZM33.0924 33.4218C32.7506 34.127 33.7408 35.0482 34.4272 34.7986C34.6732 34.7092 34.746 34.384 34.5956 34.1836C34.4588 34.0016 34.3192 33.9442 34.1978 33.7794C34.1384 33.699 34.1508 33.7154 34.095 33.5982C34.0256 33.4526 33.9628 33.3398 33.8412 33.2262C33.5962 32.9976 33.2186 33.1612 33.0924 33.4218ZM31.9374 32.6698C31.563 32.8096 31.4664 33.3128 31.4956 33.6702C31.5242 34.023 31.6932 34.345 32.0194 34.5032C32.265 34.6222 32.5674 34.3654 32.4654 34.1028C32.4016 33.9388 32.384 33.7602 32.4058 33.6024C32.4416 33.3448 32.5438 33.0454 32.3732 32.8158C32.2754 32.6834 32.0982 32.6096 31.9374 32.6698ZM36.0374 35.0496C35.84 35.024 35.6554 35.1706 35.6284 35.3664C35.5994 35.5774 35.7438 35.7632 35.939 35.8284C36.0854 35.8774 36.2116 35.8722 36.3584 35.8306C36.4278 35.811 36.486 35.7448 36.5204 35.686C36.5574 35.6226 36.5802 35.5442 36.5668 35.4698C36.5424 35.333 36.4364 35.203 36.2934 35.1808C36.2804 35.166 36.2666 35.1514 36.2488 35.1374C36.1872 35.0882 36.1154 35.0598 36.0374 35.0496ZM32.9702 30.2232C32.6358 30.5676 32.7788 31.3494 33.1544 31.6124C33.3716 31.7644 33.6884 31.657 33.7236 31.3784C33.7354 31.286 33.7298 31.231 33.728 31.1414C33.7262 31.0556 33.7178 31.0002 33.7206 30.9502C33.73 30.7828 33.7768 30.596 33.7384 30.432C33.6494 30.0532 33.237 29.9484 32.9702 30.2232ZM30.8028 35.1912C30.3406 35.7386 31.1024 36.6786 31.7016 36.6968C31.9016 36.703 32.1472 36.4986 32.0222 36.278C31.922 36.1012 31.7888 35.946 31.7002 35.7624C31.592 35.5384 31.5664 35.2782 31.3464 35.1252C31.1698 35.002 30.9442 35.0238 30.8028 35.1912ZM41.837 35.0172C41.699 35.0392 41.569 35.1312 41.521 35.3052C41.457 35.5272 41.449 35.7252 41.283 35.8992C41.115 36.0732 40.917 36.1812 40.793 36.3952C40.685 36.5772 40.845 36.8472 41.061 36.8232C41.407 36.7872 41.729 36.6012 41.955 36.3352C41.923 35.9592 41.883 35.5132 41.837 35.0172ZM40.8316 33.3676C40.7186 33.6396 40.7392 33.9476 40.6458 34.232C40.562 34.4874 40.4632 34.7526 40.35 34.996C40.267 35.1746 40.4348 35.46 40.6532 35.363C41.0174 35.2014 41.2872 34.988 41.4654 34.621C41.6176 34.3072 41.7854 33.78 41.639 33.4444C41.5048 33.1368 40.9952 32.974 40.8316 33.3676ZM39.6912 36.093C39.514 36.2906 39.3192 36.5002 39.0688 36.6038C38.8318 36.7016 38.691 36.9378 38.8054 37.1896C38.9216 37.4456 39.1856 37.4838 39.4196 37.377C39.838 37.1858 40.1588 36.8506 40.2872 36.4058C40.3852 36.0666 39.9164 35.842 39.6912 36.093ZM37.8624 26.2934C38.098 26.3322 38.3206 26.2094 38.3832 25.9698C38.4958 25.5388 38.111 25.0966 37.8068 24.8282C37.4932 24.5516 37.0742 24.3164 36.6496 24.455C36.3804 24.5428 36.3482 24.8342 36.5078 25.0338C36.6932 25.2658 36.951 25.436 37.149 25.661C37.363 25.9042 37.5142 26.2362 37.8624 26.2934ZM39.3914 27.9888C39.559 27.7466 39.4294 27.3914 39.3086 27.1594C39.2446 27.0364 39.1466 26.9236 39.0238 26.8556C38.8584 26.764 38.6062 26.7756 38.5108 26.9656C38.449 27.0888 38.4546 27.2006 38.487 27.3296C38.5032 27.3942 38.5272 27.4484 38.5542 27.5104C38.558 27.519 38.5606 27.5246 38.5626 27.5288C38.5638 27.5332 38.5654 27.5384 38.5674 27.545C38.6246 27.7306 38.6608 27.937 38.8024 28.0794C38.9894 28.2676 39.2582 28.1816 39.3914 27.9888ZM40.422 26.5566C40.408 26.0632 40.1682 25.5976 39.8708 25.2146C39.631 24.906 39.216 24.4096 38.7754 24.5204C38.6714 24.5466 38.6238 24.6438 38.6158 24.7408C38.5878 25.0788 38.9758 25.442 39.1424 25.711C39.3532 26.0516 39.5016 26.4278 39.7172 26.7644C39.9198 27.0812 40.433 26.9432 40.422 26.5566ZM38.912 29.9804C38.9866 29.9944 39.062 29.9922 39.1358 29.9738C39.2492 29.9456 39.3364 29.8576 39.3966 29.763C39.4592 29.6646 39.469 29.5292 39.4742 29.4166C39.4796 29.2992 39.433 29.1972 39.384 29.0942C39.3622 29.0668 39.3404 29.0396 39.3186 29.0122C39.2894 28.9908 39.2602 28.9694 39.231 28.948C39.1518 28.905 39.062 28.893 38.974 28.9072C38.8144 28.9328 38.6816 29.052 38.6432 29.2116C38.6148 29.3296 38.5802 29.4452 38.5734 29.5672C38.5794 29.604 38.5852 29.641 38.5912 29.6778C38.6056 29.7344 38.6324 29.7834 38.6718 29.8248C38.731 29.8984 38.8166 29.9624 38.912 29.9804ZM40.2922 28.7078C40.4512 28.696 40.5912 28.5908 40.6292 28.432C40.6674 28.2728 40.6434 28.121 40.5992 27.9658C40.5628 27.8384 40.4978 27.6698 40.3902 27.5842C40.227 27.455 39.9762 27.4994 39.9228 27.7222C39.8958 27.835 39.9158 27.9596 39.9186 28.0748C39.9198 28.1256 39.9172 28.176 39.9144 28.2268C39.9104 28.3036 39.926 28.3764 39.9388 28.452C39.9638 28.6002 40.1484 28.7186 40.2922 28.7078Z" fill="#030402"/>
<path d="M39.6027 25.3549C38.8403 25.2849 37.8645 23.6575 37.6791 22.6219C37.6669 22.5509 37.9707 21.9495 38.3055 21.2013C38.5069 20.7465 38.7203 20.2353 38.8815 19.7549L41.6497 21.4977C41.6497 21.4977 41.0157 22.4055 40.7399 23.2451C40.7177 23.3155 40.7027 23.3829 40.6945 23.4493C40.6925 23.4587 40.6915 23.4705 40.6879 23.4835C40.6231 23.8785 40.3397 25.4219 39.6027 25.3549Z" fill="#D3766A"/>
<path d="M40.6936 23.4494C40.6914 23.458 40.6906 23.4694 40.6872 23.4822C40.5882 23.4652 40.4836 23.4354 40.372 23.3968C38.641 22.7726 38.9462 20.5004 39.068 19.873L39.7596 20.3082L41.6492 21.4982C41.6492 21.4982 41.0146 22.406 40.7402 23.2458C40.7174 23.3154 40.702 23.3826 40.6936 23.4494Z" fill="#263238"/>
<path d="M39.1692 16.5482C38.5972 17.5784 38.4982 20.8868 39.1304 21.7644C40.0468 23.0366 41.8864 23.5328 43.0528 22.3538C44.1836 21.2108 44.236 16.897 43.4984 16.0646C42.412 14.8388 40.0142 15.0264 39.1692 16.5482Z" fill="#D3766A"/>
<path d="M41.8249 19.2219C41.8235 19.2133 41.8067 19.2321 41.8067 19.2415C41.8061 19.4693 41.7671 19.7299 41.5587 19.7985C41.5523 19.8005 41.5525 19.8121 41.5603 19.8113C41.8125 19.7845 41.8607 19.4379 41.8249 19.2219Z" fill="#263238"/>
<path d="M41.6296 18.9772C41.2648 18.937 41.2108 19.6698 41.549 19.707C41.8818 19.7438 41.9356 19.011 41.6296 18.9772Z" fill="#263238"/>
<path d="M43.1376 19.2998C43.14 19.2914 43.1546 19.312 43.1534 19.3212C43.128 19.5476 43.1372 19.811 43.3364 19.9028C43.3426 19.9056 43.341 19.917 43.3334 19.9154C43.0858 19.8602 43.0774 19.5102 43.1376 19.2998Z" fill="#263238"/>
<path d="M43.3593 19.0791C43.7265 19.0805 43.6965 19.8147 43.3563 19.8135C43.0215 19.8121 43.0515 19.0779 43.3593 19.0791Z" fill="#263238"/>
<path d="M41.9266 18.8299C41.8256 18.8515 41.729 18.8545 41.627 18.8655C41.5118 18.8779 41.4214 18.8997 41.3144 18.8435C41.257 18.8135 41.2298 18.7221 41.2538 18.6637C41.3096 18.5275 41.4468 18.4773 41.5848 18.4567C41.7344 18.4343 41.8556 18.4553 41.9854 18.5325C42.1116 18.6073 42.0596 18.8015 41.9266 18.8299Z" fill="#263238"/>
<path d="M43.6864 18.3977C43.586 18.3737 43.4974 18.3347 43.4006 18.3007C43.2914 18.2623 43.2004 18.2429 43.1282 18.1463C43.0894 18.0945 43.1042 18.0005 43.151 17.9579C43.26 17.8591 43.4056 17.8729 43.5388 17.9137C43.6834 17.9581 43.7838 18.0293 43.8678 18.1549C43.9492 18.2765 43.8188 18.4293 43.6864 18.3977Z" fill="#263238"/>
<path d="M41.658 21.0259C41.9536 20.9311 42.3212 20.9927 42.5534 21.0375C42.5798 21.0353 42.607 20.9853 42.613 20.9609V20.9593C42.6134 20.9511 42.6304 20.4787 42.6304 20.4787C42.6914 20.5145 43.0036 20.6807 43.0044 20.5901C43.0094 19.8401 43.0154 19.0059 42.862 18.2585C42.8582 18.2335 42.8202 18.2367 42.8206 18.2615C42.7872 18.9823 42.8806 19.7039 42.8584 20.4283C42.7582 20.3825 42.5956 20.2991 42.5052 20.2949C42.4802 20.3003 42.5128 20.8047 42.4994 20.8817C42.4994 20.8817 42.0504 20.7139 41.6606 20.9271C41.5598 20.9821 41.517 21.0711 41.658 21.0259Z" fill="#263238"/>
<path d="M41.0664 21.5024C41.117 21.5584 41.1664 21.6342 41.2476 21.646C41.3254 21.6574 41.4194 21.6276 41.493 21.6042C41.5002 21.602 41.507 21.6098 41.502 21.6164C41.4382 21.6992 41.312 21.7458 41.209 21.721C41.1082 21.697 41.0632 21.6058 41.0442 21.5112C41.0414 21.498 41.059 21.4942 41.0664 21.5024Z" fill="#263238"/>
<path opacity="0.2" d="M40.1348 15.498C40.1058 16.0134 39.9834 17.6054 39.7358 17.9306C39.5 18.2422 38.964 19.0082 38.6968 19.1258C38.7338 18.0636 38.897 17.0538 39.1722 16.5316C39.399 16.0968 39.7368 15.75 40.1348 15.498Z" fill="#263238"/>
<path d="M42.9853 17.0564C42.7001 17.342 42.2873 17.4696 41.8917 17.3764C41.5065 17.2856 41.1387 16.9888 41.0257 16.6012C41.0223 16.5896 41.0043 16.595 41.0077 16.6064C41.1287 17.0208 41.4323 17.3768 41.8687 17.4686C42.2781 17.5548 42.7361 17.396 43.0059 17.0766C43.0179 17.0626 42.9985 17.0432 42.9853 17.0564Z" fill="#263238"/>
<path d="M41.9817 14.0912C41.3045 14.058 40.6573 14.3882 40.3775 14.8314C40.2075 15.1006 40.1647 15.383 40.1897 15.6752C40.1907 15.687 40.2151 15.6864 40.2149 15.6744C40.2085 15.2138 40.4717 14.7084 40.9847 14.4236C41.4777 14.15 42.1097 14.0994 42.6369 14.343C42.9121 14.4702 43.1283 14.6658 43.2303 14.8928C43.2417 14.9182 43.2935 14.9058 43.2845 14.8802C43.1311 14.4452 42.5947 14.1212 41.9817 14.0912Z" fill="#263238"/>
<path d="M45.8043 15.8349C45.7213 15.4945 45.5089 15.1925 45.2259 14.9883C44.8293 14.7021 44.3575 14.7067 43.8889 14.7209C43.8761 14.7213 43.8767 14.7411 43.8893 14.7407C44.2883 14.7299 44.6937 14.7423 45.0449 14.9545C45.3311 15.1275 45.5617 15.3987 45.6721 15.7159C45.9013 16.3741 45.5857 17.1481 44.9545 17.4481C44.5971 17.6179 44.1687 17.6313 43.8019 17.4835C43.7875 17.4777 43.7751 17.4987 43.7897 17.5051C44.4587 17.7955 45.2887 17.5401 45.6477 16.8961C45.8249 16.5781 45.8911 16.1903 45.8043 15.8349Z" fill="#263238"/>
<path d="M38.9692 17.1938C38.9692 17.1938 38.4184 15.9368 39.0076 15.2772C39.3414 14.9034 40.3464 15.0318 40.3464 15.0318C40.3464 15.0318 40.7154 14.4762 41.5654 14.3482C42.4246 14.2188 43.391 14.7878 43.391 14.7878C43.391 14.7878 44.2276 14.3894 44.9462 14.8754C45.9482 15.5532 45.6966 17.1384 44.6038 17.5716C43.8364 17.8758 42.8808 17.1446 42.8808 17.1446C42.7832 17.1504 41.7482 17.6722 41.067 16.7326C41.067 16.7326 40.418 17.2272 39.9008 16.807C39.9006 16.8064 39.5828 17.334 38.9692 17.1938Z" fill="#263238"/>
<path d="M39.295 19.2889C39.295 19.2889 38.7716 18.1155 38.2526 18.2829C37.7338 18.4503 37.9882 20.0538 38.4994 20.3649C39.0106 20.6762 39.308 20.2088 39.308 20.2088L39.295 19.2889Z" fill="#D3766A"/>
<path d="M38.3374 18.7405C38.3288 18.7381 38.3247 18.7501 38.3317 18.7547C38.6877 18.9857 38.8218 19.3829 38.8926 19.7817C38.8054 19.6167 38.6641 19.5081 38.4463 19.6079C38.4349 19.6131 38.4415 19.6309 38.4529 19.6305C38.6177 19.6271 38.7265 19.6765 38.8089 19.8239C38.8673 19.9281 38.8971 20.0517 38.9313 20.1657C38.9427 20.2037 39.0086 20.1973 39.003 20.1549C39.0026 20.1517 39.002 20.1485 39.0016 20.1453C39.1062 19.6549 38.8564 18.8921 38.3374 18.7405Z" fill="#263238"/>
<path d="M67.0209 21.6187L45.4873 28.2148L49.3698 40.8895L70.9034 34.2934L67.0209 21.6187Z" fill="#1EA659"/>
<path opacity="0.2" d="M67.0209 21.6187L45.4873 28.2148L49.3698 40.8895L70.9034 34.2934L67.0209 21.6187Z" fill="black"/>
<path opacity="0.2" d="M67.0197 21.6183L59.7832 23.835L63.6658 36.51L70.9023 34.2933L67.0197 21.6183Z" fill="black"/>
<path d="M66.6679 22.2656C66.4251 23.3868 66.1877 24.5094 65.9571 25.6338L65.2737 29.0094L64.6143 32.3914C64.3975 33.5196 64.1875 34.6496 63.9829 35.781C64.2259 34.66 64.4633 33.5374 64.6939 32.413L65.3769 29.0374L66.0361 25.6554C66.2531 24.5268 66.4631 23.397 66.6679 22.2656Z" fill="#1EA659"/>
<path d="M70.2223 33.8698C69.4191 33.0472 68.6123 32.2286 67.8009 31.4154L65.3605 28.9828L62.9041 26.5688C62.0831 25.7666 61.2577 24.9696 60.4287 24.1768C61.2317 24.9996 62.0387 25.8182 62.8501 26.6312L65.2903 29.0638L67.7469 31.4776C68.5679 32.28 69.3933 33.077 70.2223 33.8698Z" fill="#1EA659"/>
<path d="M49.6213 29.8428L49.7393 29.8066L49.2295 28.1419L49.1115 28.178L49.6213 29.8428Z" fill="#263238"/>
<path d="M49.341 29.9336L49.459 29.8975L48.949 28.2329L48.8311 28.269L49.341 29.9336Z" fill="#263238"/>
<path d="M49.0539 30.0186L49.1719 29.9824L48.6621 28.3177L48.5441 28.3538L49.0539 30.0186Z" fill="#263238"/>
<path d="M48.7702 30.1074L48.8882 30.0713L48.3784 28.4065L48.2604 28.4427L48.7702 30.1074Z" fill="#263238"/>
<path d="M48.4909 30.1934L48.6089 30.1572L48.0989 28.4927L47.981 28.5288L48.4909 30.1934Z" fill="#263238"/>
<path d="M48.2077 30.2803L48.3257 30.2441L47.8157 28.5796L47.6978 28.6157L48.2077 30.2803Z" fill="#263238"/>
<path d="M47.9211 30.3652L48.0391 30.3291L47.5293 28.6644L47.4113 28.7005L47.9211 30.3652Z" fill="#263238"/>
<path d="M47.6398 30.4541L47.7578 30.418L47.2477 28.7534L47.1297 28.7896L47.6398 30.4541Z" fill="#263238"/>
<path d="M47.3547 30.5391L47.4727 30.5029L46.9629 28.8382L46.8449 28.8743L47.3547 30.5391Z" fill="#263238"/>
<path d="M50.4276 27.9173L49.9346 27.9301L51.0008 27.6035L50.5856 27.8705L50.773 28.4825C51.1112 28.4255 51.3386 28.7067 51.5104 29.2675L50.4442 29.5941C50.2728 29.0347 50.3034 28.6729 50.6154 28.5307L50.4276 27.9173Z" fill="#263238"/>
<path d="M51.4985 28.342L51.7767 28.2568L51.5273 27.4418L52.2399 27.2236L52.4895 28.0384L52.7691 27.9528L52.3933 28.9966L51.4985 28.342Z" fill="#263238"/>
<path opacity="0.1" d="M45.4844 28.2147L45.8028 29.2543L60.6876 26.8001L59.78 23.8369L45.4844 28.2147Z" fill="black"/>
<path d="M73.689 35.7307L66.4518 37.9475L63.6616 36.5107L70.8988 34.2939L73.689 35.7307Z" fill="#1EA659"/>
<path opacity="0.2" d="M73.689 35.7307L66.4518 37.9475L63.6616 36.5107L70.8988 34.2939L73.689 35.7307Z" fill="black"/>
<path d="M47.8594 43.6417L55.0966 41.4249L56.6034 38.6719L49.366 40.8887L47.8594 43.6417Z" fill="#1EA659"/>
<path opacity="0.1" d="M47.8594 43.6417L55.0966 41.4249L56.6034 38.6719L49.366 40.8887L47.8594 43.6417Z" fill="black"/>
<path d="M35.9464 26.2589C37.0042 29.7975 39.9512 35.8523 41.0378 36.5995C42 37.2613 46.6182 36.6587 48.6418 36.2215C49.399 36.0579 47.844 30.2863 47.038 30.4773C46.0708 30.7065 43.1894 31.2827 42.9846 31.1197C42.7598 30.9407 39.9776 27.3255 37.9794 25.1821C36.168 23.2389 35.5462 24.9203 35.9464 26.2589Z" fill="#D3766A"/>
<path d="M46.623 30.9461C46.623 30.9461 48.1524 29.2213 49.2366 28.5639C50.6882 27.6835 52.3038 27.5211 52.985 27.4939C54.407 27.4371 57.8842 28.2831 57.8152 29.3271C57.7528 30.2721 54.2422 29.2279 54.2422 29.2279C54.2422 29.2279 57.9972 29.7019 57.713 30.8261C57.4286 31.9501 53.4222 30.5061 53.4222 30.5061C53.4222 30.5061 57.2696 31.0797 56.793 32.1925C56.4328 33.0335 52.7306 31.9301 52.7306 31.9301C52.7306 31.9301 56.034 32.4459 55.701 33.3267C55.3328 34.3001 51.8516 33.4959 51.8516 33.4959C50.628 35.5923 49.1878 36.0899 48.121 36.3219C47.8626 36.3781 46.623 30.9461 46.623 30.9461Z" fill="#D3766A"/>
<path d="M52.9544 28.9805C53.3976 29.0203 53.8464 29.0575 54.2844 29.1365C54.7224 29.2155 55.1582 29.3097 55.5868 29.4291C56.6384 29.7219 57.251 30.0697 57.2108 30.0525C56.2604 29.6419 54.6966 29.3349 54.2584 29.2559C53.8212 29.1771 53.388 29.0763 52.9508 28.9971C52.9398 28.9951 52.944 28.9795 52.9544 28.9805Z" fill="#263238"/>
<path d="M52.6404 30.5567C53.204 30.6319 53.7664 30.6859 54.3268 30.7859C54.8844 30.8855 55.405 31.0289 55.9544 31.1667C55.9968 31.1773 55.9772 31.1965 55.9342 31.1875C55.3798 31.0717 54.8582 31.0075 54.3024 30.8983C53.7486 30.7895 53.1948 30.6583 52.6376 30.5697C52.6288 30.5687 52.6318 30.5557 52.6404 30.5567Z" fill="#263238"/>
<path d="M52.1278 31.8624C52.995 31.9332 53.8482 32.164 54.6796 32.4104C54.721 32.4226 54.693 32.4448 54.65 32.4346C53.8052 32.2364 53.1438 32.075 52.1254 31.8926C52.1094 31.8898 52.1096 31.8608 52.1278 31.8624Z" fill="#263238"/>
<path d="M48.181 37.2441L46.8368 30.3417L43.0902 30.9295C41.66 29.2089 38.7988 25.7695 37.631 24.7285C36.261 23.5073 35.3236 24.3787 35.7936 26.1885C36.8688 30.3281 40.1328 36.4393 41.0176 37.0393C42.2854 37.8987 48.181 37.2441 48.181 37.2441Z" fill="#1EA659"/>
<path opacity="0.1" d="M45.6449 31.2996C45.8175 31.36 46.0273 31.3408 46.2071 31.3656C46.6017 31.4198 46.7829 32.0092 46.4199 32.2328C46.0295 32.473 45.5605 32.5108 45.1301 32.3432C44.7285 32.1868 44.3925 31.7992 44.4783 31.3476C44.5535 30.9516 44.9629 30.8384 45.2771 31.0388C45.4053 31.1206 45.4995 31.2486 45.6449 31.2996ZM45.2509 30.5912C45.5269 30.7052 45.8369 30.7172 46.0589 30.5672C46.1049 30.5352 46.1409 30.4952 46.1629 30.4472L45.2509 30.5912ZM43.3049 30.8952C43.4629 31.0072 43.6509 31.0672 43.8569 31.0452C44.0029 31.0292 44.1009 30.9012 44.1089 30.7692L43.3049 30.8952ZM47.5449 33.9772C47.4709 34.0072 47.4069 34.0652 47.3649 34.1492C47.1969 34.4872 47.4309 34.8512 47.7569 35.0692L47.5449 33.9772ZM41.5209 35.3048C41.4577 35.5264 41.4487 35.7246 41.2821 35.8986C41.1153 36.0726 40.9179 36.1814 40.7925 36.3944C40.6853 36.5766 40.8459 36.8464 41.0617 36.8234C41.7501 36.7496 42.3487 36.083 42.2881 35.3794C42.2499 34.9374 41.6435 34.8748 41.5209 35.3048ZM40.8315 33.3676C40.7185 33.6396 40.7391 33.9476 40.6457 34.232C40.5619 34.4874 40.4631 34.7526 40.3499 34.996C40.2669 35.1746 40.4347 35.46 40.6531 35.363C41.0173 35.2014 41.2871 34.988 41.4653 34.621C41.6175 34.3072 41.7853 33.78 41.6389 33.4444C41.5047 33.1368 40.9951 32.974 40.8315 33.3676ZM37.8623 26.2934C38.0979 26.3322 38.3205 26.2094 38.3831 25.9698C38.4957 25.5388 38.1109 25.0966 37.8067 24.8282C37.4931 24.5516 37.0741 24.3164 36.6495 24.455C36.3803 24.5428 36.3481 24.8342 36.5077 25.0338C36.6931 25.2658 36.9509 25.436 37.1489 25.661C37.3629 25.9042 37.5141 26.2362 37.8623 26.2934ZM39.3913 27.9888C39.5589 27.7466 39.4293 27.3914 39.3085 27.1594C39.2445 27.0364 39.1465 26.9236 39.0237 26.8556C38.8583 26.764 38.6061 26.7756 38.5107 26.9656C38.4489 27.0888 38.4545 27.2006 38.4869 27.3296C38.5031 27.3942 38.5271 27.4484 38.5541 27.5104C38.5579 27.519 38.5605 27.5246 38.5625 27.5288C38.5637 27.5332 38.5653 27.5384 38.5673 27.545C38.6245 27.7306 38.6607 27.937 38.8023 28.0794C38.9893 28.2676 39.2581 28.1816 39.3913 27.9888ZM38.9119 29.9804C38.9865 29.9944 39.0619 29.9922 39.1357 29.9738C39.2491 29.9456 39.3363 29.8576 39.3965 29.763C39.4591 29.6646 39.4689 29.5292 39.4741 29.4166C39.4795 29.2992 39.4329 29.1972 39.3839 29.0942C39.3621 29.0668 39.3403 29.0396 39.3185 29.0122C39.2893 28.9908 39.2601 28.9694 39.2309 28.948C39.1517 28.905 39.0619 28.893 38.9739 28.9072C38.8143 28.9328 38.6815 29.052 38.6431 29.2116C38.6147 29.3296 38.5801 29.4452 38.5733 29.5672C38.5793 29.604 38.5851 29.641 38.5911 29.6778C38.6055 29.7344 38.6323 29.7834 38.6717 29.8248C38.7309 29.8984 38.8165 29.9624 38.9119 29.9804ZM40.6009 27.9692C40.5989 27.9672 40.5989 27.9672 40.5989 27.9652C40.4689 27.8152 40.3369 27.6632 40.2089 27.5152C40.0829 27.5052 39.9589 27.5732 39.9229 27.7232C39.8949 27.8352 39.9149 27.9592 39.9189 28.0752C39.9189 28.1252 39.9169 28.1752 39.9149 28.2272C39.9109 28.3032 39.9249 28.3772 39.9389 28.4512C39.9629 28.6012 40.1489 28.7192 40.2929 28.7072C40.4509 28.6952 40.5909 28.5912 40.6289 28.4312C40.6669 28.2752 40.6429 28.1232 40.6009 27.9692Z" fill="#030402"/>
<path d="M46.8892 36.6106C46.7272 36.2008 46.3476 34.4204 46.2578 33.9758C46.1698 33.5404 45.8686 31.7362 45.7778 31.2792C45.7728 31.2544 45.8068 31.2398 45.8124 31.2652C45.9098 31.7158 46.3506 33.49 46.4444 33.9334C46.5386 34.3782 46.896 36.158 46.9122 36.6048C46.9128 36.6202 46.8944 36.6236 46.8892 36.6106Z" fill="#263238"/>
<path d="M45.6527 37.4395C45.0393 37.4743 44.4247 37.4883 43.8099 37.4845C43.1953 37.4769 42.5791 37.4637 41.9659 37.3789C41.6607 37.3315 41.3511 37.2873 41.0589 37.1385C40.7767 36.9615 40.5869 36.7121 40.3945 36.4683C40.0191 35.9727 39.7139 35.4349 39.4121 34.8981C38.8117 33.8215 38.2969 32.7029 37.7923 31.5819C37.3003 30.4551 36.8313 29.3185 36.4111 28.1631C36.9205 29.2815 37.4253 30.4007 37.9479 31.5111C38.4617 32.6253 39.0027 33.7267 39.5751 34.8089C39.8651 35.3477 40.1733 35.8775 40.5193 36.3767C40.6953 36.6189 40.8821 36.8747 41.1199 37.0309C41.3747 37.1677 41.6845 37.2223 41.9819 37.2725C43.1913 37.4467 44.4263 37.4495 45.6527 37.4395Z" fill="#263238"/>
<path d="M36.8051 29.1377C36.7201 29.0563 36.6519 28.9621 36.5843 28.8675C36.5235 28.7693 36.4555 28.6711 36.4287 28.5547C36.4583 28.6051 36.4941 28.6501 36.5267 28.6977L36.6257 28.8397C36.6881 28.9367 36.7535 29.0319 36.8051 29.1377Z" fill="#263238"/>
<path d="M39.958 27.2842C40.4652 27.7932 40.918 28.351 41.3878 28.8922C41.8554 29.4354 42.309 29.9916 42.786 30.5232L42.9656 30.72C42.996 30.7514 43.0262 30.784 43.057 30.8126C43.0726 30.8286 43.087 30.8398 43.1012 30.8518C43.112 30.8614 43.105 30.8528 43.105 30.8574C43.1064 30.8592 43.1196 30.857 43.1262 30.8572C43.2786 30.8508 43.4712 30.8234 43.6436 30.8002L44.7062 30.6432C45.4154 30.5394 46.1242 30.431 46.8352 30.3344L46.8426 30.3334L46.8436 30.3402L46.8704 30.5162L46.8292 30.343L46.8376 30.3488C46.136 30.4998 45.4314 30.6334 44.7256 30.762C44.3726 30.826 44.0184 30.8822 43.663 30.9368C43.4806 30.9622 43.318 30.9928 43.1126 31.0014C43.0972 31 43.0868 31.0034 43.0676 30.9976C43.0484 30.9906 43.0196 30.975 43.0142 30.9686C42.9938 30.9524 42.973 30.9356 42.957 30.9198C42.9218 30.8876 42.8906 30.8548 42.8582 30.8222C42.7954 30.7564 42.734 30.6902 42.6748 30.6222C42.2036 30.078 41.7478 29.525 41.3004 28.9644L40.6314 28.1222C40.4094 27.8408 40.1942 27.5534 39.958 27.2842Z" fill="#263238"/>
<path d="M40.2217 27.3457C40.2969 27.4369 40.3539 27.5387 40.4099 27.6409C40.4589 27.7459 40.5151 27.8517 40.5285 27.9707C40.5047 27.9171 40.4745 27.8679 40.4475 27.8167L40.3655 27.6637C40.3149 27.5595 40.2609 27.4569 40.2217 27.3457Z" fill="#263238"/>
<path d="M16.2334 79.6445C16.1572 77.7733 16.1878 75.8985 16.3104 74.0301C16.5632 70.1761 17.1978 66.3521 18.0692 62.5917C18.5596 60.4751 19.1636 58.3939 19.793 56.3153C19.812 56.2525 19.9122 56.2703 19.8948 56.3357C17.9486 63.6635 16.352 71.2257 16.462 78.8431C16.4928 80.9749 16.7396 83.0689 16.942 85.1871C16.9474 85.2439 16.8542 85.2663 16.8412 85.2081C16.4394 83.3953 16.3088 81.4959 16.2334 79.6445Z" fill="#1EA659"/>
<path d="M19.8948 56.3359C19.8948 56.3359 22.8428 63.8189 22.1828 65.5777C21.5228 67.3365 20.162 67.7117 20.162 67.7117C20.162 67.7117 21.9658 70.2869 20.7052 72.7023C19.4446 75.1177 16.6442 75.0035 16.458 77.7421C16.458 77.7421 16.302 66.2911 19.8948 56.3359Z" fill="#1EA659"/>
<path d="M16.7784 73.0134C16.7748 73.0008 16.7756 72.9876 16.7814 72.974C17.1954 67.886 18.098 62.8138 19.641 57.9208C19.6456 57.9064 19.6694 57.911 19.6654 57.926C19.0814 60.115 18.5616 62.3156 18.1174 64.5284C18.5002 64.1342 19.001 63.9074 19.5246 63.7438C19.5344 63.7408 19.5394 63.7548 19.53 63.7588C18.9848 63.9944 18.4624 64.2678 18.077 64.7296C17.991 65.1632 17.9066 65.5972 17.8266 66.0316C18.4854 65.2952 19.3992 64.93 20.3134 64.5826C20.3262 64.5776 20.3332 64.5976 20.3206 64.6026C19.3684 64.9902 18.42 65.4896 17.7748 66.3102C17.55 67.552 17.3532 68.7982 17.1828 70.0482C17.6644 69.545 18.2588 69.2068 18.9408 69.0406C18.9612 69.0356 18.9728 69.066 18.952 69.072C18.2514 69.2738 17.6488 69.666 17.169 70.214C17.1656 70.2178 17.1618 70.2198 17.158 70.2222C17.099 70.662 17.0434 71.1022 16.9912 71.543C17.3622 71.2266 17.772 70.986 18.2234 70.7998C18.2354 70.7948 18.2418 70.8136 18.23 70.8186C17.7716 71.0138 17.359 71.295 16.9958 71.6354C16.9906 71.6402 16.9854 71.6398 16.98 71.6416C16.931 72.0606 16.882 72.4798 16.8396 72.8998C17.5156 72.0852 18.3512 71.496 19.34 71.1144C19.3594 71.107 19.3694 71.1364 19.3508 71.1444C18.3894 71.5624 17.5418 72.2248 16.8866 73.0406C16.8686 73.063 16.8452 73.0666 16.8244 73.06C16.7606 73.704 16.7036 74.3488 16.6562 74.995C16.6556 75.0038 16.641 75.0048 16.6416 74.9956C16.6788 74.3354 16.725 73.6742 16.7784 73.0134Z" fill="#263238"/>
<path d="M19.1476 63.0005C19.659 62.6491 20.3086 62.4991 20.9188 62.4483C20.9334 62.4471 20.9346 62.4687 20.9204 62.4709C20.2856 62.5651 19.7522 62.7949 19.169 63.0429C19.1438 63.0535 19.1256 63.0155 19.1476 63.0005Z" fill="#263238"/>
<path d="M18.7893 70.9228C19.1939 70.68 19.6553 70.5428 20.1189 70.468C20.1351 70.4654 20.1365 70.4904 20.1207 70.4932C19.6501 70.5784 19.2331 70.746 18.8055 70.9544C18.7873 70.9634 18.7721 70.9332 18.7893 70.9228Z" fill="#263238"/>
<path d="M8.48356 65.6997C9.71296 66.5639 10.893 67.5609 11.8958 68.6825C12.9648 69.8779 13.7444 71.2349 14.289 72.7409C15.4044 75.8261 16.016 79.1683 16.0718 82.4473C16.103 84.2855 15.9396 86.1093 15.5462 87.9059C15.5318 87.9711 15.4342 87.9527 15.4442 87.8867C15.9248 84.7257 15.9074 81.5001 15.3908 78.345C14.884 75.2495 14.0886 71.8817 12.121 69.3659C11.0496 67.9961 9.71356 66.9183 8.39296 65.8045C8.32336 65.7457 8.41196 65.6493 8.48356 65.6997Z" fill="#1EA659"/>
<path d="M15.6375 80.2178C15.6375 80.2178 14.6249 78.5128 13.1501 77.0384C11.6753 75.564 10.4331 74.516 10.2415 73.5408C10.0497 72.5656 11.7189 71.8476 11.7189 71.8476C11.7189 71.8476 9.6779 72.214 9.1195 71.3574C8.5611 70.501 8.2915 65.54 8.2915 65.54C8.2915 65.54 12.0045 68.1908 13.7343 71.9068C15.4643 75.6226 15.6375 80.2178 15.6375 80.2178Z" fill="#1EA659"/>
<path d="M9.57618 66.8116C11.1384 68.346 12.7108 69.9812 13.6308 71.997C13.9462 72.6882 14.2146 73.4049 14.451 74.1353C14.4516 74.1363 14.4516 74.1375 14.4522 74.1387C14.4996 74.2853 14.5476 74.4315 14.5924 74.5793C14.5968 74.5867 14.5992 74.5949 14.6 74.6033C15.0548 76.1087 15.3764 77.6656 15.6548 79.1864C15.6566 79.1962 15.6418 79.2015 15.6396 79.1913C15.4796 78.4173 15.3032 77.6356 15.106 76.8564C15.099 76.8566 15.0916 76.8552 15.0838 76.852C14.768 76.7192 14.4504 76.6362 14.1094 76.6046C14.0872 76.6026 14.089 76.564 14.1114 76.565C14.4404 76.5808 14.7626 76.6386 15.0752 76.7408C14.8954 76.0382 14.6998 75.3374 14.48 74.6468C13.7632 74.4712 13.015 74.3766 12.2778 74.359C12.2702 74.3588 12.269 74.3474 12.2768 74.347C13.02 74.3124 13.7182 74.3765 14.442 74.5309C14.4038 74.4123 14.3638 74.2944 14.3244 74.1764C13.8404 74.0662 13.3542 73.9735 12.859 73.9283C12.8502 73.9275 12.8508 73.9122 12.8598 73.9124C13.3448 73.9254 13.8226 73.9764 14.2946 74.0869C14.0926 73.4893 13.8742 72.8998 13.632 72.3257C13.4316 71.8509 13.1934 71.3999 12.931 70.9647C12.534 70.8749 12.1492 70.7892 11.7424 70.7526C11.731 70.7516 11.7324 70.7336 11.7434 70.7328C12.1126 70.7088 12.4974 70.7364 12.8546 70.8426C12.6594 70.5272 12.454 70.2182 12.2346 69.919C11.402 69.7346 10.5578 69.5634 9.70618 69.7234C9.69138 69.7262 9.68598 69.7014 9.70058 69.6976C10.5114 69.4844 11.3162 69.6075 12.123 69.7671C12.035 69.6499 11.945 69.5342 11.854 69.4192C11.343 69.2612 10.8346 69.1847 10.2984 69.1749C10.2874 69.1747 10.2856 69.1587 10.297 69.1577C10.7864 69.1109 11.2746 69.1582 11.7474 69.2864C11.059 68.4312 10.2988 67.6281 9.54698 66.8335C9.51198 66.7969 9.53918 66.7754 9.57618 66.8116Z" fill="#263238"/>
<path d="M9.61732 70.1935C9.86172 70.1675 10.1103 70.1401 10.3557 70.1679C10.3855 70.1713 10.3829 70.2197 10.3529 70.2205C10.1085 70.2277 9.86412 70.2095 9.61952 70.2227C9.60112 70.2237 9.59872 70.1955 9.61732 70.1935Z" fill="#263238"/>
<path d="M12.29 75.006C12.6802 75.0012 13.0698 75.1062 13.4344 75.2358C13.4436 75.239 13.4384 75.2542 13.429 75.252C13.051 75.162 12.6688 75.1254 12.287 75.0626C12.256 75.0574 12.2574 75.0064 12.29 75.006Z" fill="#263238"/>
<path d="M13.0908 73.3433C13.2492 73.3351 13.4204 73.3629 13.5766 73.3873C13.5926 73.3899 13.5918 73.4159 13.575 73.4163C13.4172 73.4191 13.2436 73.4233 13.0882 73.3935C13.0608 73.3879 13.0618 73.3447 13.0908 73.3433Z" fill="#263238"/>
<path d="M26.5217 70.9647C25.3269 71.3799 24.1417 71.9141 23.0709 72.5899C21.9295 73.3103 20.9849 74.2283 20.1961 75.3211C18.5803 77.5601 17.3129 80.1235 16.5099 82.7641C16.0597 84.2445 15.7705 85.7581 15.6735 87.3031C15.6699 87.3593 15.7533 87.3669 15.7605 87.3111C16.1021 84.6419 16.8619 82.0355 18.0091 79.6015C19.1349 77.2135 20.5569 74.6717 22.7307 73.0905C23.9145 72.2295 25.2447 71.6661 26.5709 71.0699C26.6407 71.0389 26.5911 70.9405 26.5217 70.9647Z" fill="#1EA659"/>
<path d="M17.376 81.0605C17.376 81.0605 18.5896 79.9147 20.1238 79.0623C21.6582 78.2099 22.9056 77.6489 23.2862 76.9041C23.6668 76.1593 22.482 75.1923 22.482 75.1923C22.482 75.1923 24.049 75.9605 24.6988 75.3965C25.3486 74.8325 26.7134 70.8799 26.7134 70.8799C26.7134 70.8799 23.096 72.1671 20.837 74.7745C18.5784 77.3817 17.376 81.0605 17.376 81.0605Z" fill="#1EA659"/>
<path d="M17.5646 80.2454C19.374 76.8494 21.7882 73.777 25.0962 71.7492C25.0976 71.7484 25.0992 71.7504 25.0978 71.7514C24.2268 72.3064 23.4244 72.9464 22.6764 73.6462C23.346 73.6276 24.0278 73.7344 24.6214 74.0568C24.6346 74.064 24.625 74.0816 24.6116 74.0772C23.95 73.8534 23.3142 73.7064 22.6104 73.739C22.6006 73.7394 22.5946 73.7344 22.5878 73.7306C22.4704 73.8418 22.3546 73.955 22.2398 74.0692C22.588 74.0842 22.94 74.1334 23.2792 74.2072C23.2884 74.2092 23.2858 74.2234 23.2764 74.2216C22.9094 74.1506 22.5512 74.126 22.1786 74.131C21.5724 74.7402 21.0076 75.3918 20.4724 76.0684C20.714 76.0332 20.9674 76.0536 21.1992 76.1212C21.2164 76.1262 21.212 76.1508 21.1938 76.1486C20.9302 76.1152 20.6798 76.1196 20.418 76.138C20.319 76.264 20.2188 76.3894 20.1218 76.5172C20.8658 76.4724 21.5944 76.5438 22.3174 76.7306C22.328 76.7334 22.3252 76.7498 22.3142 76.7476C21.5686 76.6012 20.8168 76.5544 20.0592 76.6012C19.967 76.7236 19.8794 76.8494 19.789 76.9734C20.2328 76.9598 20.6632 77.0154 21.096 77.123C21.1124 77.127 21.1078 77.153 21.091 77.1492C20.6458 77.0478 20.1932 77.0222 19.7382 77.0438C19.349 77.5802 18.9762 78.1282 18.6178 78.683C18.8076 78.644 19.0068 78.6652 19.1914 78.7176C19.2012 78.7204 19.1986 78.7344 19.1884 78.7332C18.9754 78.7084 18.7768 78.7358 18.5676 78.7626C18.2454 79.2642 17.934 79.7708 17.6354 80.2804C17.61 80.3226 17.5404 80.2906 17.5646 80.2454Z" fill="#263238"/>
<path d="M20.379 77.4282C20.7328 77.3978 21.0922 77.4534 21.43 77.5568C21.4396 77.5598 21.4374 77.5744 21.427 77.5724C21.0792 77.5084 20.7344 77.4842 20.3818 77.4654C20.3586 77.464 20.3542 77.4302 20.379 77.4282Z" fill="#263238"/>
<path d="M23.5344 73.2891C23.6944 73.2709 23.8612 73.2917 24.0192 73.3173C24.038 73.3203 24.0322 73.3481 24.0136 73.3461C23.8542 73.3291 23.697 73.3351 23.5376 73.3303C23.5116 73.3295 23.5076 73.2923 23.5344 73.2891Z" fill="#263238"/>
<path d="M12.7104 92.289H20.876L19.7118 83.76L19.4142 81.5732H14.1722L13.8748 83.76L12.7104 92.289Z" fill="#455A64"/>
<path d="M13.875 83.76H19.712L19.4144 81.5732H14.1724L13.875 83.76Z" fill="#263238"/>
<path d="M13.4224 82.667H20.1636V80.815H13.4224V82.667Z" fill="#455A64"/>
<path d="M56.2005 12.153C56.2005 14.6068 54.2103 16.597 51.7565 16.597C50.7649 16.597 49.8493 16.2718 49.1091 15.7206L46.9321 16.2764L47.8385 14.2492C47.5017 13.6242 47.3127 12.9094 47.3127 12.153C47.3127 9.69918 49.3029 7.70898 51.7567 7.70898C54.2105 7.70898 56.2005 9.69918 56.2005 12.153Z" fill="white"/>
<path d="M56.2007 12.153C56.1931 12.9696 55.9811 13.7914 55.5439 14.487C55.4457 14.6676 55.3111 14.8238 55.1917 14.9902C55.0521 15.1402 54.9243 15.302 54.7667 15.4342C54.4695 15.7172 54.1269 15.9508 53.7629 16.1404C53.4017 16.3394 53.0029 16.4584 52.6023 16.55C52.3989 16.5826 52.1959 16.6228 51.9891 16.6266C51.7833 16.6436 51.5765 16.6432 51.3703 16.6276C50.5453 16.5664 49.7383 16.2684 49.0669 15.7778L49.1271 15.7898L46.9543 16.3616L46.7783 16.4078L46.8523 16.2406L47.7509 14.21L47.7541 14.295C47.0839 13.0872 47.0491 11.5686 47.6147 10.3192C47.8963 9.6936 48.3223 9.1356 48.8481 8.6984C49.3733 8.26 50.0031 7.954 50.6637 7.7938C51.3251 7.6354 52.0215 7.625 52.6835 7.7714C53.3451 7.9204 53.9687 8.2218 54.4973 8.6404C55.5699 9.4666 56.2055 10.8074 56.2007 12.153ZM56.2007 12.153C56.1951 10.807 55.5499 9.4768 54.4781 8.6648C53.9453 8.2584 53.3225 7.974 52.6689 7.8398C52.0145 7.7084 51.3319 7.7328 50.6901 7.9C50.0489 8.0688 49.4435 8.3782 48.9439 8.8124C48.4459 9.2472 48.0441 9.789 47.7759 10.3908C47.5011 10.992 47.3963 11.6588 47.4121 12.3154C47.4395 12.973 47.6153 13.6226 47.9233 14.2038L47.9457 14.2462L47.9265 14.289L47.0125 16.3126L46.9107 16.1916L49.0917 15.6518L49.1253 15.6434L49.1519 15.6636C49.7927 16.1514 50.5717 16.4578 51.3781 16.5334C51.5797 16.5528 51.7823 16.557 51.9847 16.5442C52.1881 16.5446 52.3879 16.5088 52.5889 16.4808C52.9845 16.3982 53.3807 16.2888 53.7417 16.0988C54.1051 15.918 54.4515 15.6946 54.7477 15.4138C54.9055 15.2836 55.0337 15.1238 55.1737 14.9756C55.2937 14.811 55.4289 14.6564 55.5281 14.4774C55.9687 13.7878 56.1867 12.9696 56.2007 12.153Z" fill="#263238"/>
<path d="M52.0655 12.6342V13.1238C52.0655 13.3344 51.9073 13.4926 51.6965 13.4926C51.5009 13.4926 51.3277 13.3344 51.3277 13.1238V12.3406C51.3277 12.3332 51.3353 12.3332 51.3353 12.3256C51.3277 12.3182 51.3277 12.3182 51.3277 12.3106C51.3277 12.1148 51.5009 11.9416 51.6965 11.9416C52.1711 11.9416 52.5551 11.5652 52.5551 11.0984C52.5551 10.6242 52.1709 10.2552 51.6965 10.2552C51.3879 10.2552 51.1169 10.421 50.9737 10.6694C50.8685 10.8502 50.6427 10.9104 50.4617 10.805C50.2885 10.6998 50.2285 10.4812 50.3339 10.3008C50.6049 9.83398 51.1169 9.51758 51.6965 9.51758C52.5701 9.51758 53.2853 10.2254 53.2853 11.0988C53.2853 11.8438 52.7657 12.4688 52.0655 12.6342ZM52.0655 14.2832V14.4186C52.0655 14.6296 51.9073 14.7876 51.6965 14.7876C51.5009 14.7876 51.3277 14.6294 51.3277 14.4186V14.2832C51.3277 14.08 51.5009 13.9144 51.6965 13.9144C51.9073 13.9144 52.0655 14.08 52.0655 14.2832Z" fill="#1EA659"/>
</svg>
