<svg width="100%" height="100%" viewBox="0 0 19 20" fill="none" xmlns="http://www.w3.org/2000/svg">
<path d="M13.2559 20H4.95105C1.28863 20 0.175781 18.7535 0.175781 14.6512V5.34884C0.175781 1.24651 1.28863 0 4.95105 0H6.19678C7.65012 0 8.10688 0.530233 8.68822 1.39535L9.93394 3.25581C10.208 3.66512 10.2495 3.72093 10.7644 3.72093H13.2559C16.9183 3.72093 18.0311 4.96744 18.0311 9.06977V14.6512C18.0311 18.7535 16.9183 20 13.2559 20ZM4.95105 1.39535C1.98623 1.39535 1.4215 2.02791 1.4215 5.34884V14.6512C1.4215 17.9721 1.98623 18.6047 4.95105 18.6047H13.2559C16.2207 18.6047 16.7854 17.9721 16.7854 14.6512V9.06977C16.7854 5.74884 16.2207 5.11628 13.2559 5.11628H10.7644C9.70141 5.11628 9.35261 4.70698 8.93737 4.09302L7.69164 2.23256C7.25979 1.5907 7.13522 1.39535 6.19678 1.39535H4.95105Z" fill="#fff"/>
</svg>
