<svg width="32" height="32" viewBox="0 0 32 32" fill="none" xmlns="http://www.w3.org/2000/svg">
<circle cx="16" cy="16" r="16" fill="#B3E5C9"/>
<path d="M24.2501 13.5996C25.007 14.0354 25.6206 14.682 26.0163 15.4606C26.4119 16.2392 26.5725 17.1161 26.4783 17.9843C26.3842 18.8526 26.0394 19.6747 25.4861 20.3504C24.9328 21.0261 24.1948 21.5261 23.3621 21.7896C23.0678 23.1251 22.3263 24.32 21.2603 25.1765C20.1942 26.0331 18.8676 26.4999 17.5001 26.4996H15.2501C15.0512 26.4996 14.8605 26.4206 14.7198 26.2799C14.5791 26.1393 14.5001 25.9485 14.5001 25.7496C14.5001 25.5507 14.5791 25.3599 14.7198 25.2193C14.8605 25.0786 15.0512 24.9996 15.2501 24.9996H17.5001C18.4311 24.9999 19.3392 24.7115 20.0994 24.1743C20.8596 23.637 21.4346 22.8772 21.7451 21.9996H21.2501C21.0512 21.9996 20.8605 21.9206 20.7198 21.7799C20.5791 21.6393 20.5001 21.4485 20.5001 21.2496V13.7496C20.5001 13.5507 20.5791 13.3599 20.7198 13.2193C20.8605 13.0786 21.0512 12.9996 21.2501 12.9996H22.0001C22.2431 12.9996 22.4816 13.0191 22.7156 13.0566C22.5468 11.3929 21.7664 9.85118 20.5257 8.73004C19.285 7.6089 17.6723 6.9882 16.0001 6.9882C14.3279 6.9882 12.7152 7.6089 11.4745 8.73004C10.2339 9.85118 9.45348 11.3929 9.28463 13.0566C9.52125 13.0187 9.7605 12.9997 10.0001 12.9996H10.7501C10.949 12.9996 11.1398 13.0786 11.2805 13.2193C11.4211 13.3599 11.5001 13.5507 11.5001 13.7496V21.2496C11.5001 21.4485 11.4211 21.6393 11.2805 21.7799C11.1398 21.9206 10.949 21.9996 10.7501 21.9996H10.0001C9.0086 22.0007 8.04447 21.6743 7.25753 21.0711C6.47058 20.4679 5.9049 19.6217 5.64835 18.6639C5.39181 17.7062 5.45877 16.6905 5.83884 15.7747C6.21891 14.8589 6.8908 14.0943 7.75013 13.5996C7.75013 11.4116 8.61932 9.31315 10.1665 7.76598C11.7137 6.2188 13.8121 5.34961 16.0001 5.34961C18.1882 5.34961 20.2866 6.2188 21.8338 7.76598C23.3809 9.31315 24.2501 11.4116 24.2501 13.5996ZM10.0001 14.4996C9.20448 14.4996 8.44142 14.8157 7.87881 15.3783C7.3162 15.9409 7.00013 16.704 7.00013 17.4996C7.00013 18.2953 7.3162 19.0583 7.87881 19.6209C8.44142 20.1835 9.20448 20.4996 10.0001 20.4996V14.4996ZM25.0001 17.4996C25.0001 16.704 24.6841 15.9409 24.1214 15.3783C23.5588 14.8157 22.7958 14.4996 22.0001 14.4996V20.4996C22.7958 20.4996 23.5588 20.1835 24.1214 19.6209C24.6841 19.0583 25.0001 18.2953 25.0001 17.4996Z" fill="#1EA659"/>
</svg>
