<svg width="24" height="24" viewBox="0 0 24 24" fill="none" xmlns="http://www.w3.org/2000/svg">
<circle cx="12" cy="12" r="12" fill="#E9ECEF"/>
<path d="M17.5 17C17.5 17.1326 17.4473 17.2598 17.3536 17.3536C17.2598 17.4473 17.1326 17.5 17 17.5H5C4.86739 17.5 4.74021 17.4473 4.64645 17.3536C4.55268 17.2598 4.5 17.1326 4.5 17V7C4.5 6.86739 4.55268 6.74021 4.64645 6.64645C4.74021 6.55268 4.86739 6.5 5 6.5C5.13261 6.5 5.25979 6.55268 5.35355 6.64645C5.44732 6.74021 5.5 6.86739 5.5 7V7.79312L9 11.2931L10.6462 9.64625C10.6927 9.59976 10.7478 9.56288 10.8085 9.53772C10.8692 9.51256 10.9343 9.49961 11 9.49961C11.0657 9.49961 11.1308 9.51256 11.1915 9.53772C11.2522 9.56288 11.3073 9.59976 11.3538 9.64625L15 13.2931V12C15 11.8674 15.0527 11.7402 15.1464 11.6464C15.2402 11.5527 15.3674 11.5 15.5 11.5C15.6326 11.5 15.7598 11.5527 15.8536 11.6464C15.9473 11.7402 16 11.8674 16 12V14.5C16.001 14.5167 16.001 14.5333 16 14.55C16 14.5569 16 14.5631 15.9969 14.57C15.9937 14.5769 15.9969 14.5887 15.9925 14.5988C15.9911 14.6066 15.9893 14.6143 15.9869 14.6219C15.9869 14.63 15.9831 14.6381 15.9806 14.6462C15.9781 14.6544 15.9756 14.6606 15.9731 14.6681L15.9644 14.6925L15.955 14.7119C15.9513 14.72 15.9475 14.7287 15.9431 14.7369C15.9387 14.745 15.9362 14.7481 15.9331 14.7544L15.9181 14.7788L15.905 14.7963L15.8888 14.8181C15.8819 14.8269 15.8737 14.835 15.8663 14.8431L15.8562 14.8544L15.8456 14.8638C15.8373 14.872 15.8286 14.8797 15.8194 14.8869C15.813 14.8924 15.8063 14.8976 15.7994 14.9025L15.7806 14.9163L15.7569 14.9306C15.7508 14.9345 15.7446 14.9381 15.7381 14.9412L15.715 14.9531L15.6938 14.9625L15.6713 14.9706C15.6635 14.9739 15.6556 14.9766 15.6475 14.9788L15.625 14.985C15.6163 14.985 15.6088 14.9894 15.6 14.9906L15.5737 14.995L15.5519 14.9981C15.5354 14.9991 15.5189 14.9991 15.5025 14.9981H13C12.8674 14.9981 12.7402 14.9454 12.6464 14.8517C12.5527 14.7579 12.5 14.6307 12.5 14.4981C12.5 14.3655 12.5527 14.2383 12.6464 14.1446C12.7402 14.0508 12.8674 13.9981 13 13.9981H14.2931L11 10.7069L9.35375 12.3538C9.30731 12.4002 9.25217 12.4371 9.19147 12.4623C9.13077 12.4874 9.06571 12.5004 9 12.5004C8.93429 12.5004 8.86923 12.4874 8.80853 12.4623C8.74783 12.4371 8.69269 12.4002 8.64625 12.3538L5.5 9.20687V16.5H17C17.1326 16.5 17.2598 16.5527 17.3536 16.6464C17.4473 16.7402 17.5 16.8674 17.5 17Z" fill="#1EA659"/>
</svg>
