<svg width="32" height="32" viewBox="0 0 32 32" fill="none" xmlns="http://www.w3.org/2000/svg">
<circle cx="16" cy="16" r="16" fill="#B3E5C9"/>
<path d="M26.7815 13.0045C26.6675 12.6551 26.4533 12.3469 26.1657 12.1183C25.878 11.8896 25.5294 11.7505 25.1633 11.7183L19.8196 11.2561L17.729 6.27419C17.5852 5.9354 17.3448 5.64643 17.0379 5.44329C16.731 5.24016 16.3711 5.13184 16.003 5.13184C15.635 5.13184 15.2751 5.24016 14.9682 5.44329C14.6612 5.64643 14.4209 5.9354 14.2771 6.27419L12.1837 11.2561L6.83991 11.7183C6.47183 11.7487 6.12096 11.8872 5.83131 12.1164C5.54166 12.3455 5.32613 12.6551 5.21177 13.0063C5.09742 13.3575 5.08932 13.7346 5.1885 14.0904C5.28769 14.4462 5.48973 14.7647 5.76928 15.0061L9.83053 18.5498L8.61178 23.8223C8.5282 24.1813 8.5523 24.557 8.68107 24.9024C8.80984 25.2479 9.03757 25.5476 9.33579 25.7643C9.63401 25.981 9.98948 26.105 10.3578 26.1207C10.7261 26.1365 11.0908 26.0434 11.4065 25.8529L16.0002 23.0629L20.594 25.8529C20.9096 26.0431 21.2742 26.136 21.6424 26.1201C22.0105 26.1041 22.3657 25.9801 22.6638 25.7635C22.9618 25.5469 23.1895 25.2472 23.3182 24.902C23.447 24.5567 23.4711 24.1812 23.3877 23.8223L22.169 18.5498L26.2302 15.0061C26.509 14.7638 26.7101 14.4446 26.8081 14.0885C26.9062 13.7325 26.8969 13.3553 26.7815 13.0045ZM20.5237 17.0001C20.2666 17.2238 20.0753 17.5134 19.9704 17.8376C19.8655 18.1618 19.851 18.5086 19.9283 18.8404L20.9962 23.4642L16.9705 21.0192C16.6782 20.8412 16.3425 20.747 16.0002 20.747C15.6579 20.747 15.3223 20.8412 15.0299 21.0192L11.0043 23.4642L12.0721 18.8404C12.1495 18.5086 12.1349 18.1618 12.0301 17.8376C11.9252 17.5134 11.7339 17.2238 11.4768 17.0001L7.90584 13.8848L12.6065 13.4779C12.9469 13.4488 13.2727 13.3268 13.5486 13.1253C13.8245 12.9238 14.0398 12.6505 14.1712 12.3351L16.0002 7.97669L17.8293 12.3351C17.9606 12.6505 18.1759 12.9238 18.4518 13.1253C18.7277 13.3268 19.0536 13.4488 19.394 13.4779L24.0946 13.8848L20.5237 17.0001Z" fill="#1EA659"/>
</svg>
