<svg width="32" height="32" viewBox="0 0 32 32" fill="none" xmlns="http://www.w3.org/2000/svg">
<circle cx="16" cy="16" r="16" fill="#B3E5C9"/>
<path d="M26 16.41V8C26 7.46957 25.7893 6.96086 25.4142 6.58579C25.0391 6.21071 24.5304 6 24 6H8C7.46957 6 6.96086 6.21071 6.58579 6.58579C6.21071 6.96086 6 7.46957 6 8V26L10 22H13.29C13.7706 23.6114 14.8151 24.996 16.2325 25.9007C17.65 26.8053 19.3457 27.1696 21.0096 26.9268C22.6735 26.6841 24.1945 25.8506 25.2944 24.5787C26.3944 23.3068 26.9998 21.6815 27 20C27 18.69 26.63 17.46 26 16.41ZM9.17 20L8 21.17V8H24V14.26C22.8278 13.4389 21.4311 12.999 20 13C18.1 13 16.37 13.77 15.11 15H10V17H13.69C13.25 17.91 13 18.93 13 20H9.17ZM20 24.85C17.32 24.85 15.15 22.68 15.15 20C15.15 17.32 17.32 15.15 20 15.15C22.67 15.15 24.85 17.32 24.85 20C24.85 22.68 22.67 24.85 20 24.85ZM22 13H10V11H22V13ZM20.5 19.82L22.94 21.23L22.19 22.53L19 20.69V17H20.5V19.82Z" fill="#1EA659"/>
</svg>
