<svg width="23" height="18" viewBox="0 0 23 18" fill="none" xmlns="http://www.w3.org/2000/svg">
<path fill-rule="evenodd" clip-rule="evenodd" d="M8.569 12.9304C10.908 12.3347 13.396 11.5294 15.689 10.4072C15.258 11.1543 14.768 11.8575 14.226 12.5122C12.076 15.1109 9.88801 16.3728 7.16701 17.24C7.17101 17.1006 7.173 16.9602 7.173 16.8188C7.173 16.2868 7.15001 15.7716 7.10501 15.2726C7.13501 15.2743 7.16501 15.2753 7.19501 15.2753C8.06501 15.2753 8.77 14.5704 8.77 13.7007C8.77 13.4208 8.697 13.1583 8.569 12.9304ZM4.968 6.70398C6.655 4.97458 8.59701 3.22188 10.717 1.79618C9.85501 1.79558 9.00101 1.86828 8.16301 2.01018C4.55401 2.62108 2.286 4.05728 0 6.26578C0.663 6.39288 1.292 6.59528 1.888 6.87308C2.002 6.11448 2.65601 5.53258 3.44601 5.53258C4.17601 5.53258 4.79 6.02968 4.968 6.70398ZM6.414 12.0668C16.275 9.90398 21.753 6.05988 22.848 0.53308C17.517 -1.28142 11.453 1.53628 4.65401 8.98548C5.19601 9.61858 5.65901 10.3464 6.04301 11.1696C6.17901 11.4599 6.303 11.7588 6.414 12.0668Z" fill="#F8F9FA"/>
</svg>
