<svg width="180" height="60" viewBox="0 0 180 60" fill="none" xmlns="http://www.w3.org/2000/svg">
<mask id="mask0_39_517" style="mask-type:luminance" maskUnits="userSpaceOnUse" x="10" y="6" width="160" height="48">
<path d="M169.412 6.31552H10.397V53.506H169.412V6.31552Z" fill="white"/>
</mask>
<g mask="url(#mask0_39_517)">
<path d="M20.5487 44.1766C18.9395 44.1766 17.482 43.7631 16.1763 42.9353C14.8797 42.0985 13.8498 40.8708 13.0866 39.2524C12.3326 37.6247 11.9556 35.6292 11.9556 33.2658C11.9556 30.8381 12.3464 28.8196 13.128 27.2103C13.9096 25.5918 14.9487 24.3826 16.2452 23.5825C17.551 22.7733 18.9809 22.3687 20.5349 22.3687C21.7211 22.3687 22.7096 22.571 23.5004 22.9756C24.3004 23.371 24.9441 23.8676 25.4314 24.4653C25.928 25.0538 26.305 25.6332 26.5625 26.2034H26.7418V15.5821H32.6039V43.8321H26.8108V40.4386H26.5625C26.2866 41.0272 25.8958 41.6111 25.3901 42.1905C24.8935 42.7606 24.2453 43.234 23.4453 43.6113C22.6544 43.9882 21.6889 44.1766 20.5487 44.1766ZM22.4108 39.5007C23.3579 39.5007 24.1579 39.2432 24.8108 38.7282C25.4728 38.204 25.9786 37.4729 26.328 36.535C26.6866 35.597 26.866 34.4981 26.866 33.2382C26.866 31.9784 26.6912 30.8841 26.3418 29.9553C25.9924 29.0265 25.4866 28.3092 24.8246 27.8035C24.1625 27.2977 23.3579 27.0448 22.4108 27.0448C21.4453 27.0448 20.6315 27.3069 19.9694 27.8311C19.3073 28.3552 18.8062 29.0817 18.4659 30.0105C18.1257 30.9393 17.9556 32.0152 17.9556 33.2382C17.9556 34.4705 18.1257 35.5602 18.4659 36.5074C18.8153 37.4454 19.3165 38.1811 19.9694 38.7144C20.6315 39.2386 21.4453 39.5007 22.4108 39.5007Z" fill="#22BF66"/>
<path d="M44.4263 44.2456C42.247 44.2456 40.3712 43.8045 38.7988 42.9216C37.2356 42.0296 36.031 40.7698 35.1849 39.1421C34.339 37.5052 33.916 35.5694 33.916 33.3348C33.916 31.1554 34.339 29.2427 35.1849 27.5966C36.031 25.9505 37.2218 24.6677 38.7574 23.7481C40.3022 22.8285 42.1137 22.3687 44.1917 22.3687C45.5897 22.3687 46.8906 22.594 48.0954 23.0446C49.3092 23.486 50.3665 24.1527 51.2677 25.0447C52.178 25.9367 52.886 27.0587 53.3918 28.4104C53.8976 29.753 54.1507 31.3256 54.1507 33.1279V34.7418H36.2608V31.1002H48.6193C48.6193 30.2542 48.4356 29.5048 48.0678 28.8518C47.7 28.1989 47.1894 27.6885 46.5366 27.3207C45.8928 26.9437 45.1434 26.7552 44.2883 26.7552C43.3966 26.7552 42.6057 26.9621 41.916 27.3759C41.2355 27.7805 40.7022 28.3277 40.316 29.0174C39.9298 29.6979 39.7321 30.4565 39.7229 31.2933V34.7556C39.7229 35.8039 39.916 36.7098 40.3022 37.473C40.6976 38.2363 41.2539 38.8248 41.9712 39.2386C42.6884 39.6524 43.5389 39.8594 44.5229 39.8594C45.1757 39.8594 45.7734 39.7674 46.3158 39.5835C46.8587 39.3996 47.3231 39.1237 47.709 38.7558C48.0954 38.388 48.3895 37.9374 48.5917 37.404L54.0265 37.7627C53.7506 39.0685 53.1848 40.2088 52.3298 41.1836C51.4838 42.1491 50.3894 42.9032 49.047 43.4457C47.7138 43.9792 46.1735 44.2456 44.4263 44.2456Z" fill="#22BF66"/>
<path d="M73.4062 22.6446L65.999 43.8321H59.3784L51.9717 22.6446H58.1784L62.5783 37.8041H62.7991L67.1852 22.6446H73.4062Z" fill="#22BF66"/>
<path fill-rule="evenodd" clip-rule="evenodd" d="M155.178 30.5156C157.51 29.9216 159.989 29.1188 162.275 27.9999C161.846 28.7447 161.358 29.4458 160.818 30.0986C158.674 32.6896 156.493 33.9477 153.78 34.8123C153.784 34.6734 153.786 34.5334 153.786 34.3924C153.786 33.862 153.763 33.3483 153.718 32.8508C153.747 32.8525 153.778 32.8535 153.808 32.8535C154.675 32.8535 155.378 32.1507 155.378 31.2836C155.378 31.0045 155.305 30.7428 155.178 30.5156ZM151.588 24.3078C153.269 22.5835 155.205 20.836 157.319 19.4146C156.46 19.414 155.608 19.4864 154.772 19.6279C151.174 20.2369 148.914 21.6689 146.634 23.8708C147.295 23.9976 147.923 24.1993 148.517 24.4763C148.63 23.7199 149.282 23.1399 150.07 23.1399C150.798 23.1399 151.41 23.6354 151.588 24.3078ZM153.029 29.6546C162.86 27.4982 168.322 23.6655 169.413 18.1552C164.099 16.3461 158.052 19.1554 151.275 26.5824C151.814 27.2136 152.276 27.9393 152.659 28.76C152.795 29.0494 152.918 29.3474 153.029 29.6546Z" fill="#22BF66"/>
<path fill-rule="evenodd" clip-rule="evenodd" d="M158.062 29.6835C157.013 31.5185 155.538 33.0498 153.785 34.1635L153.786 34.3924C153.786 34.5334 153.784 34.6734 153.78 34.8123C156.492 33.9476 158.673 32.6895 160.818 30.0986C161.358 29.4458 161.846 28.7447 162.275 27.9998C160.915 28.6654 159.488 29.219 158.062 29.6835Z" fill="#22BF66"/>
<path fill-rule="evenodd" clip-rule="evenodd" d="M153.754 22.2213C154.869 21.2196 156.062 20.2597 157.319 19.4147C156.46 19.4141 155.608 19.4865 154.772 19.628C151.174 20.237 148.914 21.669 146.634 23.8709C146.819 23.9062 147 23.9475 147.18 23.9946C149.157 22.834 151.425 22.2118 153.754 22.2213Z" fill="#22BF66"/>
<path fill-rule="evenodd" clip-rule="evenodd" d="M163.5 17.9683C163.717 18.627 163.869 19.302 163.957 19.9844C165.434 20.1818 166.866 20.6427 168.182 21.347C168.778 20.3539 169.188 19.2902 169.413 18.1551C167.533 17.5154 165.562 17.4534 163.5 17.9683Z" fill="#22BF66"/>
<path fill-rule="evenodd" clip-rule="evenodd" d="M163.957 19.9844C163.869 19.302 163.717 18.6269 163.5 17.9682C161.653 18.4302 159.733 19.3546 157.738 20.7431C158.514 20.437 159.325 20.2072 160.162 20.0611C161.43 19.839 162.71 19.8177 163.957 19.9844Z" fill="#22BF66"/>
<path fill-rule="evenodd" clip-rule="evenodd" d="M168.182 21.3468C166.865 20.6425 165.434 20.1816 163.957 19.9842C164.224 22.0608 163.893 24.2018 162.954 26.1362C165.334 24.7846 167.077 23.1881 168.182 21.3468Z" fill="#22BF66"/>
<path fill-rule="evenodd" clip-rule="evenodd" d="M162.953 26.1368C160.978 24.0996 158.398 22.7837 155.624 22.3653C154.21 23.5492 152.759 24.955 151.274 26.5822C151.814 27.2133 152.276 27.9392 152.659 28.7599C152.795 29.0493 152.918 29.3474 153.029 29.6545C157.078 28.7661 160.387 27.5939 162.953 26.1368Z" fill="#22BF66"/>
<path d="M72.9673 43.8321V40.3283L83.3393 27.4862V27.3345H73.3256V22.6446H90.4153V26.4655L80.6776 38.9903V39.1421H90.7741V43.8321H72.9673Z" fill="white"/>
<path d="M131.372 51.7783V22.6461H137.165V26.2048H137.427C137.684 25.6347 138.057 25.0554 138.544 24.4668C139.041 23.8691 139.684 23.3725 140.475 22.9771C141.275 22.5725 142.268 22.3702 143.455 22.3702C144.999 22.3702 146.425 22.7748 147.73 23.584C149.036 24.3841 150.08 25.5933 150.861 27.2118C151.643 28.821 152.034 30.8395 152.034 33.2672C152.034 35.6305 151.652 37.6259 150.889 39.2536C150.135 40.8721 149.105 42.0997 147.799 42.9365C146.503 43.764 145.05 44.1779 143.441 44.1779C142.3 44.1779 141.331 43.9895 140.53 43.6126C139.739 43.2353 139.091 42.7618 138.586 42.1916C138.08 41.6123 137.694 41.0284 137.427 40.4398H137.248V51.7783H131.372ZM137.124 33.2396C137.124 34.4994 137.298 35.5983 137.648 36.5362C137.997 37.4742 138.503 38.2053 139.165 38.7294C139.827 39.2444 140.632 39.5019 141.579 39.5019C142.535 39.5019 143.344 39.2398 144.006 38.7156C144.669 38.1823 145.17 37.4466 145.51 36.5087C145.859 35.5615 146.034 34.4718 146.034 33.2396C146.034 32.0166 145.864 30.9406 145.524 30.0119C145.183 29.0831 144.682 28.3566 144.02 27.8325C143.358 27.3083 142.544 27.0462 141.579 27.0462C140.623 27.0462 139.813 27.2991 139.151 27.8049C138.499 28.3107 137.997 29.0279 137.648 29.9567C137.298 30.8855 137.124 31.9798 137.124 33.2396Z" fill="white"/>
<path d="M98.4755 44.2323C97.1237 44.2323 95.9189 43.9977 94.8616 43.5285C93.8043 43.0504 92.9674 42.3469 92.3512 41.4181C91.7445 40.4801 91.4409 39.3122 91.4409 37.9145C91.4409 36.7374 91.657 35.7488 92.089 34.9488C92.5215 34.1487 93.1101 33.505 93.8548 33.0176C94.5995 32.5303 95.4455 32.1624 96.3928 31.9141C97.3492 31.6658 98.3513 31.4911 99.3996 31.39C100.632 31.2612 101.625 31.1417 102.379 31.0313C103.133 30.9117 103.68 30.7371 104.02 30.5071C104.361 30.2772 104.53 29.937 104.53 29.4864V29.4036C104.53 28.53 104.255 27.8541 103.703 27.3759C103.16 26.8978 102.388 26.6586 101.386 26.6586C100.328 26.6586 99.4871 26.8931 98.8619 27.3621C98.2362 27.8219 97.8227 28.4013 97.6204 29.1002L92.1856 28.6588C92.4616 27.3713 93.004 26.2586 93.8134 25.3206C94.6227 24.3735 95.6662 23.647 96.9443 23.1412C98.2319 22.6262 99.7212 22.3687 101.413 22.3687C102.59 22.3687 103.717 22.5067 104.793 22.7826C105.878 23.0584 106.839 23.486 107.676 24.0654C108.522 24.6447 109.188 25.3896 109.675 26.3C110.163 27.2012 110.406 28.2817 110.406 29.5416V43.8321H104.834V40.894H104.668C104.328 41.5561 103.873 42.14 103.303 42.6458C102.733 43.1421 102.048 43.5333 101.248 43.8183C100.448 44.0943 99.5237 44.2323 98.4755 44.2323ZM100.158 40.1767C101.023 40.1767 101.786 40.0065 102.448 39.6663C103.11 39.3168 103.63 38.8478 104.006 38.2593C104.383 37.6708 104.572 37.0041 104.572 36.2592V34.0108C104.388 34.1304 104.135 34.2407 103.813 34.3419C103.501 34.4338 103.147 34.5212 102.751 34.6039C102.356 34.6775 101.96 34.7465 101.565 34.8108C101.17 34.866 100.811 34.9166 100.489 34.9626C99.7997 35.0637 99.1973 35.2247 98.6825 35.4454C98.1672 35.6661 97.7675 35.9649 97.4824 36.342C97.1974 36.7098 97.0547 37.1696 97.0547 37.7214C97.0547 38.5214 97.3445 39.1329 97.9236 39.5559C98.5121 39.9698 99.2568 40.1767 100.158 40.1767Z" fill="white"/>
<path d="M111.049 51.7774V22.6446H116.842V26.2034H117.105C117.362 25.6333 117.734 25.054 118.222 24.4654C118.718 23.8677 119.362 23.3711 120.153 22.9757C120.953 22.5711 121.946 22.3687 123.132 22.3687C124.677 22.3687 126.102 22.7734 127.408 23.5826C128.714 24.3826 129.757 25.5919 130.539 27.2104C131.32 28.8197 131.712 30.8382 131.712 33.2659C131.712 35.6293 131.33 37.6248 130.567 39.2525C129.813 40.871 128.783 42.0986 127.477 42.9355C126.181 43.7631 124.727 44.1771 123.118 44.1771C121.978 44.1771 121.008 43.9882 120.208 43.6113C119.417 43.2344 118.769 42.7607 118.263 42.1906C117.757 41.6112 117.371 41.0273 117.105 40.4388H116.925V51.7774H111.049ZM116.801 33.2383C116.801 34.4982 116.976 35.5971 117.325 36.5351C117.675 37.4731 118.18 38.2041 118.842 38.7283C119.505 39.2433 120.309 39.5008 121.256 39.5008C122.213 39.5008 123.022 39.2387 123.684 38.7145C124.346 38.1811 124.847 37.4455 125.187 36.5075C125.537 35.5603 125.711 34.4706 125.711 33.2383C125.711 32.0153 125.541 30.9393 125.201 30.0106C124.861 29.0818 124.36 28.3553 123.698 27.8311C123.035 27.307 122.222 27.0449 121.256 27.0449C120.3 27.0449 119.491 27.2978 118.829 27.8035C118.176 28.3093 117.675 29.0266 117.325 29.9554C116.976 30.8842 116.801 31.9785 116.801 33.2383Z" fill="white"/>
</g>
</svg>
