<svg width="48" height="42" viewBox="0 0 48 42" fill="none" xmlns="http://www.w3.org/2000/svg">
<mask id="mask0_125_1115" style="mask-type:luminance" maskUnits="userSpaceOnUse" x="7" y="4" width="34" height="34">
<path d="M40.7389 4.19165H7.02344V37.7252H40.7389V4.19165Z" fill="white"/>
</mask>
<g mask="url(#mask0_125_1115)">
<path d="M23.8811 37.7251C33.1913 37.7251 40.7388 30.2182 40.7388 20.9584C40.7388 11.6984 33.1913 4.19165 23.8811 4.19165C14.5709 4.19165 7.02344 11.6984 7.02344 20.9584C7.02344 30.2182 14.5709 37.7251 23.8811 37.7251Z" fill="#22BF66"/>
<path fill-rule="evenodd" clip-rule="evenodd" d="M21.3403 25.9709C23.423 25.4432 25.6373 24.7306 27.6789 23.7368C27.2956 24.3981 26.8596 25.0211 26.3772 25.6007C24.4627 27.9017 22.5149 29.0194 20.092 29.7871C20.0959 29.6639 20.0979 29.5394 20.0979 29.4142C20.0979 28.9429 20.0776 28.4871 20.0366 28.045C20.0633 28.0463 20.09 28.0476 20.1174 28.0476C20.8918 28.0476 21.5195 27.4232 21.5195 26.653C21.5195 26.4053 21.4544 26.1726 21.3403 25.9709ZM18.1344 20.4575C19.6363 18.9261 21.3651 17.3739 23.2522 16.1116C22.4849 16.111 21.7242 16.1752 20.9785 16.3009C17.7655 16.8417 15.7467 18.1137 13.7109 20.0691C14.3009 20.1819 14.8615 20.3608 15.3921 20.6066C15.4931 19.9349 16.0752 19.4195 16.7786 19.4195C17.4291 19.4195 17.9754 19.8597 18.1344 20.4568V20.4575ZM19.4212 25.2065C28.2011 23.2913 33.0784 19.8876 34.0527 14.9932C29.3066 13.3867 23.908 15.8815 17.8548 22.4777C18.3365 23.0385 18.7485 23.6829 19.0914 24.4117C19.212 24.6691 19.3221 24.9336 19.4212 25.2059V25.2065Z" fill="white"/>
<path fill-rule="evenodd" clip-rule="evenodd" d="M23.9162 25.2316C22.9789 26.8616 21.6621 28.2218 20.0964 29.2105L20.0977 29.4141C20.0977 29.5392 20.0957 29.6637 20.0918 29.7869C22.5148 29.0186 24.4625 27.9015 26.377 25.6005C26.8594 25.0209 27.2955 24.3979 27.6788 23.7366C26.4643 24.3278 25.1893 24.8193 23.9162 25.2316Z" fill="white"/>
<path fill-rule="evenodd" clip-rule="evenodd" d="M20.0692 18.6044C21.0645 17.7149 22.131 16.8624 23.2522 16.1116C22.4849 16.1109 21.7242 16.1751 20.9785 16.3009C17.7655 16.8416 15.7467 18.1136 13.7109 20.069C13.8759 20.1002 14.0382 20.1371 14.1979 20.1786C15.9638 19.1478 17.9891 18.5953 20.0692 18.6038V18.6044Z" fill="white"/>
<path fill-rule="evenodd" clip-rule="evenodd" d="M28.7715 14.8271C28.9651 15.4119 29.1006 16.0116 29.1795 16.6178C30.4983 16.7929 31.7766 17.2026 32.9523 17.8283C33.4843 16.9465 33.8507 16.0013 34.0515 14.9931C32.3736 14.4251 30.6137 14.37 28.7715 14.8271Z" fill="white"/>
<path fill-rule="evenodd" clip-rule="evenodd" d="M29.1801 16.6179C29.1019 16.0117 28.9663 15.4119 28.7721 14.8271C27.1229 15.2375 25.4072 16.0583 23.627 17.2915C24.3192 17.0192 25.0434 16.8156 25.7905 16.6859C26.9234 16.4888 28.0661 16.47 29.1801 16.6179Z" fill="white"/>
<path fill-rule="evenodd" clip-rule="evenodd" d="M32.9524 17.8276C31.7764 17.202 30.4983 16.7929 29.1795 16.6172C29.4181 18.4617 29.1221 20.3633 28.2832 22.0808C30.4096 20.88 31.9663 19.4621 32.9524 17.827V17.8276Z" fill="white"/>
<path fill-rule="evenodd" clip-rule="evenodd" d="M28.2826 22.0819C26.5186 20.2724 24.215 19.1041 21.7386 18.7319C20.4746 19.7836 19.18 21.0323 17.8535 22.4774C18.3352 23.0382 18.7479 23.6827 19.0901 24.4114C19.2107 24.6688 19.3208 24.9333 19.4199 25.2056C23.0358 24.4166 25.9906 23.3753 28.2819 22.0813L28.2826 22.0819Z" fill="white"/>
</g>
</svg>
