<svg width="24" height="24" viewBox="0 0 24 24" fill="none" xmlns="http://www.w3.org/2000/svg">
<path d="M21.8948 13.3338C21.7986 13.2374 21.6779 13.169 21.5458 13.136C21.4136 13.1029 21.275 13.1065 21.1448 13.1463C19.7147 13.5786 18.1941 13.6149 16.745 13.2512C15.2959 12.8875 13.9727 12.1375 12.9163 11.081C11.8598 10.0246 11.1098 8.70136 10.7461 7.25229C10.3824 5.80323 10.4187 4.28264 10.851 2.85255C10.8911 2.72224 10.895 2.58345 10.8621 2.45112C10.8293 2.31879 10.761 2.19792 10.6646 2.10151C10.5681 2.00509 10.4473 1.93679 10.3149 1.90393C10.1826 1.87108 10.0438 1.87492 9.91351 1.91505C7.93635 2.52071 6.20058 3.73454 4.9532 5.3838C3.86233 6.8321 3.19694 8.5559 3.03176 10.3615C2.86658 12.1671 3.20817 13.9831 4.01814 15.6053C4.82812 17.2274 6.07439 18.5916 7.61695 19.5446C9.1595 20.4975 10.9372 21.0014 12.7504 20.9997C14.8657 21.0063 16.9248 20.3186 18.6116 19.0422C20.2609 17.7949 21.4747 16.0591 22.0804 14.0819C22.12 13.9521 22.1237 13.8139 22.091 13.6822C22.0583 13.5504 21.9905 13.43 21.8948 13.3338ZM17.7098 17.8441C16.1212 19.0406 14.1539 19.623 12.17 19.4841C10.1861 19.3452 8.3192 18.4943 6.91289 17.0881C5.50658 15.6819 4.65556 13.815 4.51648 11.8312C4.37741 9.84729 4.95964 7.87995 6.15601 6.2913C6.93545 5.26198 7.94313 4.42759 9.09976 3.8538C9.03387 4.3162 9.00066 4.78266 9.00038 5.24973C9.00311 7.83476 10.0312 10.3131 11.8591 12.141C13.687 13.9689 16.1654 14.997 18.7504 14.9997C19.2184 14.9996 19.6858 14.9664 20.1491 14.9004C19.5748 16.0572 18.7398 17.0649 17.7098 17.8441Z" fill="#F8F9FA"/>
</svg>
