<svg width="100%" height="100%" viewBox="0 0 18 13" fill="none" xmlns="http://www.w3.org/2000/svg">
<path d="M16.686 5.45825H1.71355C1.22562 5.45825 0.830078 5.9013 0.830078 6.44784V6.552C0.830078 7.09853 1.22562 7.54159 1.71355 7.54159H16.686C17.1739 7.54159 17.5695 7.09853 17.5695 6.552V6.44784C17.5695 5.9013 17.1739 5.45825 16.686 5.45825Z" fill="#343a40"/>
<path d="M16.686 10.6667H1.71355C1.22562 10.6667 0.830078 11.1098 0.830078 11.6563V11.7605C0.830078 12.307 1.22562 12.7501 1.71355 12.7501H16.686C17.1739 12.7501 17.5695 12.307 17.5695 11.7605V11.6563C17.5695 11.1098 17.1739 10.6667 16.686 10.6667Z" fill="#343a40"/>
<path d="M16.686 0.25H1.71355C1.22562 0.25 0.830078 0.693051 0.830078 1.23958V1.34375C0.830078 1.89028 1.22562 2.33333 1.71355 2.33333H16.686C17.1739 2.33333 17.5695 1.89028 17.5695 1.34375V1.23958C17.5695 0.693051 17.1739 0.25 16.686 0.25Z" fill="#343a40"/>
</svg>
