<svg width="20" height="21" viewBox="0 0 20 21" fill="none" xmlns="http://www.w3.org/2000/svg">
<path d="M9.99 0.5C4.47 0.5 0 4.98 0 10.5C0 16.02 4.47 20.5 9.99 20.5C15.52 20.5 20 16.02 20 10.5C20 4.98 15.52 0.5 9.99 0.5ZM10 18.5C5.58 18.5 2 14.92 2 10.5C2 6.08 5.58 2.5 10 2.5C14.42 2.5 18 6.08 18 10.5C18 14.92 14.42 18.5 10 18.5ZM13.5 9.5C14.33 9.5 15 8.83 15 8C15 7.17 14.33 6.5 13.5 6.5C12.67 6.5 12 7.17 12 8C12 8.83 12.67 9.5 13.5 9.5ZM6.5 9.5C7.33 9.5 8 8.83 8 8C8 7.17 7.33 6.5 6.5 6.5C5.67 6.5 5 7.17 5 8C5 8.83 5.67 9.5 6.5 9.5ZM10 16C12.33 16 14.31 14.54 15.11 12.5H4.89C5.69 14.54 7.67 16 10 16Z" fill="#9DA3A7"/>
</svg>
