<svg width="15" height="21" viewBox="0 0 15 21" fill="none" xmlns="http://www.w3.org/2000/svg">
<path d="M7.48125 12.825C9.25537 12.825 10.6768 11.3929 10.6768 9.61875L10.6875 3.20625C10.6875 1.43213 9.25537 0 7.48125 0C5.70713 0 4.275 1.43213 4.275 3.20625V9.61875C4.275 11.3929 5.70713 12.825 7.48125 12.825ZM13.1456 9.61875C13.1456 12.825 10.431 15.0694 7.48125 15.0694C4.5315 15.0694 1.81687 12.825 1.81687 9.61875H0C0 13.2632 2.907 16.2771 6.4125 16.8007V20.3062H8.55V16.8007C12.0555 16.2878 14.9625 13.2739 14.9625 9.61875H13.1456Z" fill="white"/>
</svg>
