<svg width="22" height="22" viewBox="0 0 22 22" fill="none" xmlns="http://www.w3.org/2000/svg">
<path d="M21.7815 8.00475C21.6675 7.65537 21.4533 7.34719 21.1657 7.11851C20.878 6.88982 20.5294 6.75073 20.1633 6.7185L14.8196 6.25631L12.729 1.27444C12.5852 0.935648 12.3448 0.646676 12.0379 0.443538C11.731 0.2404 11.3711 0.13208 11.003 0.13208C10.635 0.13208 10.2751 0.2404 9.96816 0.443538C9.66125 0.646676 9.42091 0.935648 9.27709 1.27444L7.18366 6.25631L1.83991 6.7185C1.47183 6.74898 1.12096 6.88748 0.831307 7.11663C0.541656 7.34578 0.32613 7.65536 0.211773 8.00655C0.0974157 8.35773 0.0893207 8.73486 0.188504 9.09063C0.287687 9.4464 0.48973 9.76495 0.769282 10.0063L4.83053 13.5501L3.61178 18.8226C3.5282 19.1816 3.5523 19.5573 3.68107 19.9027C3.80984 20.2481 4.03757 20.5479 4.33579 20.7646C4.63401 20.9812 4.98948 21.1052 5.35777 21.121C5.72606 21.1367 6.09083 21.0436 6.40647 20.8532L11.0002 18.0632L15.594 20.8532C15.9096 21.0433 16.2742 21.1362 16.6424 21.1203C17.0105 21.1044 17.3657 20.9804 17.6638 20.7637C17.9618 20.5471 18.1895 20.2474 18.3182 19.9022C18.447 19.557 18.4711 19.1815 18.3877 18.8226L17.169 13.5501L21.2302 10.0063C21.509 9.76407 21.7101 9.44488 21.8081 9.08879C21.9062 8.7327 21.8969 8.35558 21.7815 8.00475ZM15.5237 12.0004C15.2666 12.2241 15.0753 12.5136 14.9704 12.8378C14.8655 13.1621 14.851 13.5088 14.9283 13.8407L15.9962 18.4644L11.9705 16.0194C11.6782 15.8414 11.3425 15.7473 11.0002 15.7473C10.6579 15.7473 10.3223 15.8414 10.0299 16.0194L6.00428 18.4644L7.07209 13.8407C7.14948 13.5088 7.13494 13.1621 7.03005 12.8378C6.92516 12.5136 6.73389 12.2241 6.47678 12.0004L2.90584 8.88506L7.60647 8.47819C7.94686 8.44904 8.27273 8.32708 8.54862 8.12558C8.8245 7.92408 9.03983 7.65076 9.17116 7.33538L11.0002 2.97694L12.8293 7.33538C12.9606 7.65076 13.1759 7.92408 13.4518 8.12558C13.7277 8.32708 14.0536 8.44904 14.394 8.47819L19.0946 8.88506L15.5237 12.0004Z" fill="#ADB5BD"/>
</svg>
