<svg width="16" height="16" viewBox="0 0 16 16" fill="none" xmlns="http://www.w3.org/2000/svg">
<path d="M15.4879 7.04245L12.3168 9.80995L13.2667 13.9303C13.317 14.1457 13.3027 14.3711 13.2255 14.5784C13.1483 14.7857 13.0118 14.9656 12.8329 15.0957C12.654 15.2258 12.4408 15.3003 12.2198 15.3099C11.9988 15.3194 11.7799 15.2636 11.5905 15.1495L7.99681 12.9698L4.41087 15.1495C4.22143 15.2636 4.00254 15.3194 3.78156 15.3099C3.56058 15.3003 3.34732 15.2258 3.16845 15.0957C2.98958 14.9656 2.85302 14.7857 2.77586 14.5784C2.6987 14.3711 2.68436 14.1457 2.73462 13.9303L3.68314 9.81417L0.511344 7.04245C0.343584 6.89776 0.222277 6.70677 0.162633 6.49341C0.10299 6.28006 0.107665 6.05384 0.176074 5.84313C0.244483 5.63243 0.373579 5.44661 0.547174 5.30898C0.720769 5.17134 0.931134 5.08803 1.15189 5.06948L5.33267 4.70737L6.96462 0.81487C7.04985 0.610623 7.1936 0.436158 7.37777 0.313441C7.56195 0.190725 7.77831 0.125244 7.99963 0.125244C8.22094 0.125244 8.4373 0.190725 8.62148 0.313441C8.80565 0.436158 8.9494 0.610623 9.03463 0.81487L10.6715 4.70737L14.8509 5.06948C15.0716 5.08803 15.282 5.17134 15.4556 5.30898C15.6292 5.44661 15.7583 5.63243 15.8267 5.84313C15.8951 6.05384 15.8998 6.28006 15.8401 6.49341C15.7805 6.70677 15.6592 6.89776 15.4914 7.04245H15.4879Z" fill="#FFDE21"/>
</svg>
